<svg xmlns="http://www.w3.org/2000/svg" viewBox="0 0 480 360" width="480" height="360"><g transform="translate(86.00 26.00) scale(0.17167)"><path fill="#fff" fill-rule="evenodd" d="M848.5 1798.9C370.9 1770.7 0 1377.7 0 900C0 347.4 493.3 -74.2 1040 11.1C1507.3 84 1839.9 511.4 1796 982.5C1762.7 1339 1524 1640.5 1185.1 1754C1078.8 1789.6 959.8 1805.5 848.5 1798.9zM426.4 1373C452.8 1368.5 474.6 1357.7 496.3 1338.3C510.4 1325.7 511.2 1329.1 489.4 1306.5C479.1 1295.8 470.5 1287 470.3 1287C470.1 1287 466.2 1290 461.7 1293.7C437.9 1313.1 419.9 1319.7 394.1 1318.7C362.8 1317.5 339.3 1302.1 325.5 1273.6C318.3 1258.8 316.7 1251.3 316.6 1232C316.2 1153.2 395 1117.2 458 1167.5C463.2 1171.6 467.8 1174.9 468.2 1174.8C468.7 1174.6 500.5 1138.3 505.7 1131.9C506.7 1130.7 505.5 1129.2 498.9 1123.5C478.1 1105.5 457.2 1095.5 429.5 1090.2C415.2 1087.5 378.9 1087.8 365.3 1090.8C307.6 1103.4 266 1145.6 254.3 1203.7C251.6 1217.2 251.9 1248.9 254.8 1262.7C271.8 1341.6 342.9 1387.3 426.4 1373zM1414.1 1375C1481.1 1368.5 1532.8 1322.8 1544.9 1259.6C1561 1175.4 1504.9 1098.8 1419.9 1088.9C1340.2 1079.7 1271.7 1126.6 1254.8 1202.1C1249.9 1224.3 1251.9 1257.2 1259.6 1279.7C1281.1 1342.7 1344.5 1381.8 1414.1 1375zM684.7 1373.9C743.9 1367.3 778.3 1324.2 767.4 1270.2C760.5 1235.8 736.6 1219 669.3 1201C631.5 1191 621.9 1184.7 621.2 1169.5C619.5 1136.1 671.2 1133.4 720.2 1164.3L729 1169.8L732.3 1165.2C745.9 1146.2 760.1 1124.7 759.7 1123.6C757.8 1118.8 728.2 1102.6 711 1097C658.1 1079.8 603.5 1089.8 577.7 1121.4C553.9 1150.7 553.8 1198.5 577.5 1223.8C591.3 1238.7 608.5 1246.6 652.9 1258.6C698.3 1270.9 708 1277.2 708 1294.2C708 1309.7 696 1318.9 673.5 1320.6C647.6 1322.6 619.4 1313 593.4 1293.5L585 1287.1L567.7 1307.8C558.2 1319.2 550.1 1329 549.7 1329.7C548.9 1330.9 561 1340.9 571.4 1347.5C603.9 1368.2 646.6 1378.2 684.7 1373.9zM898 1231.5L898 1092L867.5 1092L837 1092L837 1231.5L837 1371L867.5 1371L898 1371L898 1231.5zM1038 1326.5L1038 1282L1062 1282L1086 1282L1115.7 1326.5L1145.4 1371L1181.3 1371L1217.1 1371L1205.7 1354.2C1199.4 1345 1184.1 1322.7 1171.7 1304.6L1149.1 1271.6L1155.6 1268.9C1190.8 1254 1211.4 1218.7 1208.6 1178C1205.2 1130.4 1176.4 1101.3 1125.2 1093.8C1118.8 1092.8 1097.9 1092.5 1046.5 1092.5L976.5 1092.5L976.2 1230.5C976.1 1306.4 976.2 1369.1 976.5 1369.8C976.8 1370.7 984 1371 1007.5 1371L1038 1371L1038 1326.5zM1382.5 1317.6C1357.2 1311.8 1337 1295.8 1325.1 1272.3C1314 1250.1 1313.1 1219 1323.1 1194.8C1341.5 1150.2 1395.2 1131.1 1438.5 1153.8C1505.3 1188.9 1495.8 1295.2 1424 1316C1414.4 1318.8 1391.6 1319.7 1382.5 1317.6zM1038 1188.1L1038 1148L1073.3 1148C1110.7 1148 1117.6 1148.7 1127.2 1153.6C1151.8 1166.1 1153.6 1204.5 1130.3 1219.9C1119.7 1226.9 1116.7 1227.4 1075.2 1227.8L1038 1228.2L1038 1188.1zM1134.9 996.1C1165.4 986.6 1178.2 950.2 1160.4 923.5C1141.6 895.2 1099.4 895.2 1080.5 923.5C1055.6 961 1091.9 1009.5 1134.9 996.1zM1139.4 854.6C1151.4 848.7 1159.2 839.7 1163 827.1C1165.7 818.5 1166.2 259.9 1163.5 249.7C1161.3 241.1 1158.4 236.2 1151.6 229.4C1127.4 205.3 1087.1 216 1077.6 249C1076.1 254.1 1076 281.1 1076.2 540L1076.5 825.5L1080.1 833.1C1091 855.8 1117.5 865.4 1139.4 854.6zM983.9 814.1C1000.5 808.9 1012.2 795.4 1014.9 778C1016.4 769 1016.4 392 1014.9 383C1008 339.7 949.4 330.9 930.9 370.4C925.8 381.2 926 375.7 926.2 584.1C926.5 780.5 926.5 780.5 928.7 786.2C937.4 809.1 961.3 821.1 983.9 814.1zM536.6 771C548.9 766.8 559.1 756.9 564.2 744.2C566.5 738.5 566.5 738.5 566.5 602.5C566.5 449.3 567.2 462.5 558.7 449.9C540 421.7 496.4 425.6 481.7 456.7L478.5 463.5L478.5 602L478.5 740.5L481.9 747.5C492 768.1 515.5 778.2 536.6 771zM1288.2 769.3C1299.7 763.9 1308.6 754 1312.6 742C1314.4 736.7 1314.5 730.7 1314.5 602C1314.5 473.3 1314.4 467.3 1312.6 462C1308.6 450.1 1299.7 440.1 1288.2 434.7C1278.2 429.9 1261.8 429.9 1251.8 434.7C1240.3 440.1 1231.4 450.1 1227.4 462C1225.6 467.3 1225.5 473.3 1225.5 602C1225.5 751.7 1225 740.8 1232.2 752.2C1243.9 770.9 1268.7 778.4 1288.2 769.3zM685.5 728.3C696.6 724.9 706.9 715.6 712.3 704.2L715.5 697.5L715.5 516L715.5 334.5L712.1 327.5C693.2 289.1 636.9 296.1 628.1 337.8C626.6 344.8 626.5 686.2 628 694.1C632.9 720.2 659.7 736.2 685.5 728.3zM828.5 687C845.5 684.2 860.2 671 864.4 654.5C866.8 645.5 866.8 258.5 864.4 249.5C860.2 233 845.9 220.1 828.6 216.9C809.6 213.4 789.5 224.2 780.7 242.7L777.5 249.5L777.5 452L777.5 654.5L780.7 661.2C789.6 680.1 808.5 690.3 828.5 687z"/></g></svg>