<svg xmlns="http://www.w3.org/2000/svg" viewBox="0 0 480 360" width="480" height="360"><g transform="translate(27.00 60.74) scale(0.44283) translate(0 -95)"><g transform="translate(0 95) scale(1.07250) translate(-343.347 -93.595)">
<defs><clipPath id="ko"><path d="M338.347 88.595h569.441v472.058h-569.441Z M674.610 421.522 C688.102 397.087 695.388 368.329 695.396 338.503 C695.392 324.811 693.699 311.352 690.721 298.558 C686.156 298.066 681.280 297.781 676.584 297.781 C639.321 297.799 605.540 313.423 582.002 339.226 C589.569 355.133 600.277 370.331 613.381 383.441 C631.165 401.216 652.249 413.890 674.610 421.522 Z"/></clipPath></defs><g clip-path="url(#ko)">
<g fill="#ffffff" fill-opacity="0.22" stroke="none">
<path d="M547.970 426.319 C547.976 455.938 558.044 483.227 574.937 504.954 C617.754 490.665 653.188 460.343 674.145 421.101 C651.838 413.460 630.889 400.755 613.106 382.979 C600.001 369.867 589.659 355.053 582.059 339.249 C560.902 362.116 547.976 392.695 547.970 426.319 Z"/>
<path d="M695.090 338.636 C695.083 368.463 687.635 396.534 674.511 421.113 C716.831 435.612 764.042 431.868 803.843 409.845 C796.322 351.336 749.379 305.164 690.531 298.819 C693.509 311.613 695.087 324.943 695.090 338.636 Z"/>
<path d="M582.059 339.249 C605.486 313.927 639.006 298.071 676.269 298.054 C680.964 298.054 685.599 298.315 690.163 298.807 C677.909 246.143 641.901 202.559 594.045 179.975 C561.616 227.460 557.624 288.458 582.059 339.249 Z"/>
</g>
<g fill="none" stroke="#ffffff" stroke-linejoin="round">
<path stroke-width="1.214" d="M676.607 554.653 C605.776 554.637 548.356 497.151 548.340 426.384 C548.354 355.521 605.732 298.150 676.639 298.118 C747.451 298.118 804.886 355.553 804.901 426.384 C804.886 497.154 747.438 554.604 676.607 554.653 Z"/>
<path stroke-width="1.214" d="M676.609 548.240 C609.318 548.224 554.772 493.613 554.753 426.384 C554.772 359.065 609.272 304.560 676.637 304.531 C743.911 304.529 798.476 359.092 798.490 426.384 C798.471 493.612 743.895 548.190 676.609 548.240 Z"/>
<path stroke-width="1.214" d="M676.607 542.148 C612.682 542.134 560.862 490.255 560.845 426.387 C560.862 362.434 612.641 310.655 676.635 310.625 C740.544 310.625 792.380 362.463 792.396 426.387 C792.383 490.255 740.532 542.104 676.607 542.148 Z"/>
<path stroke-width="1.214" d="M676.609 536.358 C615.880 536.347 566.648 487.059 566.637 426.385 C566.651 365.629 615.841 316.443 676.635 316.414 C737.346 316.413 786.590 365.660 786.607 426.387 C786.593 487.064 737.336 536.320 676.609 536.358 Z"/>
<path stroke-width="1.214" d="M676.609 530.857 C618.916 530.845 572.148 484.021 572.135 426.384 C572.148 368.666 618.879 321.936 676.635 321.915 C734.311 321.915 781.094 368.694 781.107 426.384 C781.096 484.024 734.302 530.819 676.609 530.857 Z"/>
<path stroke-width="1.214" d="M676.610 525.635 C621.798 525.621 577.370 481.142 577.359 426.385 C577.370 371.551 621.761 327.163 676.633 327.136 C731.423 327.137 775.870 371.577 775.882 426.385 C775.870 481.142 731.415 525.599 676.610 525.635 Z"/>
<path stroke-width="1.214" d="M676.609 520.671 C624.543 520.661 582.336 478.403 582.326 426.387 C582.336 374.294 624.505 332.125 676.632 332.101 C728.687 332.101 770.906 374.315 770.919 426.385 C770.906 478.408 728.674 520.638 676.609 520.671 Z"/>
<path stroke-width="1.214" d="M676.609 515.956 C627.148 515.947 587.046 475.800 587.040 426.385 C587.046 376.898 627.111 336.838 676.630 336.814 C726.082 336.814 766.191 376.920 766.205 426.385 C766.192 475.803 726.072 515.926 676.609 515.956 Z"/>
<path stroke-width="1.214" d="M676.610 511.481 C629.619 511.473 591.527 473.335 591.517 426.388 C591.527 379.377 629.589 341.314 676.634 341.293 C723.611 341.293 761.714 379.393 761.725 426.388 C761.714 473.335 723.602 511.451 676.610 511.481 Z"/>
<path stroke-width="1.214" d="M676.610 507.225 C631.967 507.214 595.779 470.983 595.773 426.384 C595.782 381.723 631.939 345.568 676.631 345.547 C721.257 345.542 757.457 381.744 757.469 426.387 C757.459 470.983 721.251 507.192 676.610 507.225 Z"/>
<path stroke-width="1.214" d="M676.614 503.185 C634.201 503.176 599.821 468.755 599.814 426.388 C599.821 383.956 634.172 349.606 676.631 349.587 C719.028 349.584 753.419 383.974 753.427 426.388 C753.416 468.758 719.020 503.154 676.614 503.185 Z"/>
<path stroke-width="1.214" d="M676.610 499.344 C636.319 499.333 603.663 466.635 603.655 426.388 C603.664 386.078 636.297 353.446 676.631 353.428 C716.907 353.423 749.578 386.097 749.587 426.385 C749.578 466.635 716.897 499.313 676.610 499.344 Z"/>
<path stroke-width="1.214" d="M676.613 495.698 C638.335 495.689 607.313 464.627 607.303 426.392 C607.313 388.095 638.309 357.094 676.631 357.076 C714.894 357.076 745.928 388.113 745.938 426.388 C745.926 464.630 714.884 495.669 676.613 495.698 Z"/>
<path stroke-width="1.214" d="M676.614 492.233 C640.251 492.223 610.774 462.713 610.769 426.388 C610.780 390.008 640.227 360.561 676.630 360.541 C712.980 360.541 742.462 390.025 742.471 426.385 C742.462 462.713 712.972 492.205 676.614 492.233 Z"/>
<path stroke-width="1.214" d="M676.613 488.939 C642.069 488.931 614.069 460.897 614.062 426.390 C614.069 391.828 642.046 363.854 676.631 363.835 C711.161 363.835 739.168 391.844 739.180 426.387 C739.170 460.897 711.155 488.914 676.613 488.939 Z"/>
<path stroke-width="1.214" d="M676.615 485.813 C643.798 485.802 617.196 459.171 617.190 426.387 C617.197 393.559 643.777 366.978 676.628 366.959 C709.434 366.959 736.045 393.572 736.051 426.387 C736.043 459.171 709.426 485.790 676.615 485.813 Z"/>
<path stroke-width="1.214" d="M676.615 482.842 C645.438 482.833 620.166 457.533 620.162 426.388 C620.168 395.201 645.418 369.949 676.628 369.930 C707.793 369.929 733.072 395.211 733.081 426.388 C733.071 457.533 707.787 482.818 676.615 482.842 Z"/>
<path stroke-width="1.214" d="M676.617 480.019 C646.999 480.011 622.988 455.973 622.985 426.385 C622.995 396.761 646.980 372.770 676.628 372.753 C706.238 372.753 730.249 396.768 730.258 426.388 C730.249 455.976 706.230 479.997 676.617 480.019 Z"/>
<path stroke-width="1.214" d="M676.614 477.336 C648.480 477.330 625.672 454.496 625.666 426.387 C625.676 398.240 648.459 375.452 676.627 375.436 C704.756 375.440 727.569 398.254 727.576 426.387 C727.569 454.496 704.749 477.317 676.614 477.336 Z"/>
<path stroke-width="1.214" d="M676.616 474.787 C649.886 474.780 628.221 453.089 628.213 426.384 C628.218 399.643 649.868 377.997 676.628 377.983 C703.347 377.983 725.019 399.653 725.029 426.384 C725.019 453.089 703.343 474.766 676.616 474.787 Z"/>
<path stroke-width="1.214" d="M676.616 472.368 C651.223 472.360 630.641 451.753 630.636 426.385 C630.641 400.982 651.206 380.416 676.626 380.403 C702.012 380.405 722.601 400.992 722.607 426.385 C722.601 451.753 702.006 472.347 676.616 472.368 Z"/>
<path stroke-width="1.214" d="M676.617 470.069 C652.495 470.066 632.934 450.486 632.933 426.388 C632.940 402.254 652.477 382.718 676.628 382.704 C700.743 382.704 720.303 402.265 720.308 426.388 C720.303 450.486 700.738 470.052 676.617 470.069 Z"/>
<path stroke-width="1.214" d="M676.617 467.884 C653.698 467.879 635.121 449.281 635.117 426.387 C635.124 403.461 653.685 384.899 676.627 384.887 C699.536 384.889 718.117 403.470 718.126 426.387 C718.118 449.281 699.531 467.866 676.617 467.884 Z"/>
<path stroke-width="1.214" d="M676.616 465.809 C654.846 465.807 637.196 448.134 637.194 426.388 C637.199 404.606 654.829 386.974 676.623 386.962 C698.390 386.964 716.042 404.617 716.048 426.388 C716.043 448.134 698.385 465.792 676.616 465.809 Z"/>
<path stroke-width="1.214" d="M676.616 463.839 C655.935 463.839 639.167 447.048 639.164 426.390 C639.167 405.693 655.916 388.942 676.623 388.933 C697.302 388.936 714.071 405.708 714.079 426.390 C714.072 447.051 697.297 463.824 676.616 463.839 Z"/>
<path stroke-width="1.214" d="M676.617 461.964 C656.968 461.958 641.042 446.013 641.038 426.385 C641.039 406.726 656.954 390.810 676.624 390.807 C696.268 390.807 712.200 406.735 712.204 426.385 C712.200 446.015 696.264 461.949 676.617 461.964 Z"/>
<path stroke-width="1.214" d="M676.615 460.185 C657.951 460.182 642.820 445.035 642.815 426.388 C642.815 407.709 657.934 392.593 676.624 392.585 C695.283 392.587 710.417 407.719 710.427 426.388 C710.419 445.035 695.280 460.174 676.615 460.185 Z"/>
<path stroke-width="1.214" d="M676.614 458.496 C658.886 458.494 644.512 444.102 644.507 426.390 C644.510 408.642 658.871 394.283 676.623 394.274 C694.352 394.276 708.728 408.653 708.735 426.390 C708.732 444.102 694.349 458.486 676.614 458.496 Z"/>
<path stroke-width="1.214" d="M676.613 456.892 C659.771 456.889 646.116 443.215 646.113 426.388 C646.113 409.534 659.757 395.885 676.622 395.879 C693.465 395.882 707.122 409.542 707.130 426.388 C707.124 443.218 693.463 456.883 676.613 456.892 Z"/>
<path stroke-width="1.214" d="M676.615 455.363 C660.613 455.363 647.639 442.374 647.636 426.389 C647.636 410.370 660.598 397.411 676.623 397.408 C692.624 397.408 705.597 410.382 705.605 426.389 C705.597 442.376 692.620 455.355 676.615 455.363 Z"/>
<path stroke-width="1.214" d="M676.613 453.916 C661.411 453.916 649.089 441.573 649.087 426.390 C649.087 411.176 661.400 398.862 676.622 398.856 C691.822 398.856 704.149 411.183 704.155 426.390 C704.149 441.576 691.820 453.908 676.613 453.916 Z"/>
<path stroke-width="1.214" d="M676.617 452.539 C662.176 452.539 650.467 440.813 650.464 426.387 C650.467 411.935 662.165 400.237 676.624 400.231 C691.063 400.231 702.774 411.944 702.778 426.387 C702.774 440.813 691.061 452.530 676.617 452.539 Z"/>
<path stroke-width="1.214" d="M676.616 451.232 C662.896 451.232 651.776 440.095 651.770 426.390 C651.772 412.657 662.885 401.546 676.620 401.540 C690.341 401.540 701.466 412.667 701.470 426.390 C701.467 440.096 690.338 451.226 676.616 451.232 Z"/>
<path stroke-width="1.214" d="M676.616 449.988 C663.583 449.988 653.016 439.406 653.012 426.387 C653.016 413.342 663.570 402.786 676.622 402.783 C689.655 402.783 700.222 413.353 700.229 426.387 C700.224 439.410 689.654 449.982 676.616 449.988 Z"/>
<path stroke-width="1.214" d="M676.614 448.810 C664.232 448.810 654.194 438.757 654.193 426.388 C654.193 413.997 664.222 403.967 676.619 403.962 C689.003 403.964 699.042 414.002 699.049 426.388 C699.042 438.760 689.000 448.804 676.614 448.810 Z"/>
<path stroke-width="1.214" d="M676.618 447.689 C664.853 447.689 655.319 438.139 655.316 426.388 C655.316 414.617 664.845 405.088 676.621 405.083 C688.385 405.083 697.924 414.625 697.925 426.388 C697.924 438.142 688.383 447.683 676.618 447.689 Z"/>
<path stroke-width="1.214" d="M676.618 446.622 C665.444 446.622 656.384 437.552 656.380 426.388 C656.384 415.204 665.434 406.153 676.621 406.148 C687.795 406.149 696.856 415.213 696.861 426.388 C696.858 437.553 687.795 446.615 676.618 446.622 Z"/>
<path stroke-width="1.214" d="M676.617 445.612 C666.005 445.609 657.395 436.990 657.391 426.387 C657.395 415.762 665.992 407.163 676.622 407.160 C687.238 407.161 695.845 415.770 695.850 426.387 C695.845 436.995 687.238 445.603 676.617 445.612 Z"/>
<path stroke-width="1.214" d="M676.618 444.651 C666.534 444.651 658.357 436.463 658.354 426.388 C658.356 416.296 666.524 408.125 676.621 408.124 C686.706 408.124 694.886 416.301 694.889 426.388 C694.887 436.465 686.706 444.642 676.618 444.651 Z"/>
<path stroke-width="1.214" d="M676.617 443.737 C667.038 443.737 659.267 435.958 659.267 426.388 C659.267 416.799 667.029 409.038 676.619 409.036 C686.201 409.036 693.970 416.806 693.973 426.388 C693.971 435.958 686.201 443.730 676.617 443.737 Z"/>
<path stroke-width="1.214" d="M676.618 442.868 C667.516 442.868 660.139 435.477 660.135 426.389 C660.137 417.279 667.508 409.905 676.620 409.902 C685.723 409.905 693.103 417.285 693.105 426.389 C693.103 435.482 685.722 442.865 676.618 442.868 Z"/>
<path stroke-width="1.214" d="M676.619 442.046 C667.971 442.042 660.962 435.026 660.959 426.388 C660.961 417.734 667.965 410.730 676.622 410.726 C685.268 410.726 692.278 417.737 692.283 426.385 C692.280 435.026 685.267 442.038 676.619 442.046 Z"/>
<path stroke-width="1.214" d="M676.619 441.261 C668.406 441.261 661.745 434.592 661.743 426.388 C661.743 418.164 668.397 411.511 676.620 411.510 C684.837 411.510 691.495 418.169 691.499 426.388 C691.499 434.594 684.836 441.256 676.619 441.261 Z"/>
<path stroke-width="1.214" d="M676.618 440.519 C668.815 440.516 662.486 434.183 662.486 426.387 C662.486 418.577 668.806 412.256 676.620 412.253 C684.426 412.256 690.752 418.585 690.756 426.390 C690.753 434.184 684.424 440.515 676.618 440.519 Z"/>
<path stroke-width="1.214" d="M676.620 439.812 C669.206 439.812 663.196 433.791 663.193 426.385 C663.196 418.968 669.201 412.962 676.621 412.960 C684.038 412.962 690.047 418.973 690.049 426.385 C690.047 433.793 684.036 439.806 676.620 439.812 Z"/>
<path stroke-width="1.620" d="M676.620 439.140 C669.577 439.140 663.869 433.420 663.866 426.385 C663.866 419.339 669.571 413.632 676.621 413.630 C683.666 413.632 689.376 419.345 689.377 426.388 C689.376 433.423 683.664 439.133 676.620 439.140 Z"/>
<path stroke-width="1.214" d="M676.746 439.145 C669.898 439.144 664.345 433.584 664.345 426.745 C664.345 419.891 669.892 414.345 676.749 414.341 C683.597 414.345 689.149 419.897 689.152 426.746 C689.149 433.586 683.596 439.142 676.746 439.145 Z"/>
<path stroke-width="1.620" d="M676.749 438.525 C670.241 438.525 664.968 433.242 664.966 426.743 C664.968 420.235 670.237 414.965 676.749 414.963 C683.257 414.965 688.529 420.239 688.532 426.743 C688.529 433.245 683.256 438.520 676.749 438.525 Z"/>
<path stroke-width="1.214" d="M676.749 437.937 C670.568 437.937 665.558 432.916 665.555 426.743 C665.555 420.561 670.561 415.553 676.749 415.550 C682.931 415.553 687.940 420.565 687.942 426.746 C687.940 432.919 682.929 437.930 676.749 437.937 Z"/>
<path stroke-width="1.214" d="M519.719 163.353 C616.540 163.376 695.031 241.955 695.052 338.687 C695.031 435.555 616.606 513.980 519.674 514.019 C422.876 514.019 344.368 435.510 344.347 338.688 C344.365 241.952 422.898 163.422 519.719 163.353 Z"/>
<path stroke-width="1.214" d="M519.719 172.121 C611.699 172.141 686.264 246.788 686.286 338.687 C686.267 430.708 611.763 505.212 519.678 505.251 C427.720 505.250 353.135 430.665 353.114 338.685 C353.137 246.791 427.741 172.186 519.719 172.121 Z"/>
<path stroke-width="1.214" d="M519.719 180.449 C607.101 180.466 677.937 251.385 677.955 338.686 C677.935 426.104 607.158 496.883 519.678 496.924 C432.322 496.921 361.463 426.065 361.444 338.686 C361.462 251.383 432.337 180.508 519.719 180.449 Z"/>
<path stroke-width="1.214" d="M519.718 188.361 C602.730 188.380 670.026 255.750 670.042 338.687 C670.024 421.736 602.786 488.973 519.681 489.014 C436.691 489.014 369.377 421.701 369.356 338.688 C369.375 255.751 436.707 188.418 519.718 188.361 Z"/>
<path stroke-width="1.214" d="M519.717 195.877 C598.580 195.898 662.509 259.899 662.527 338.687 C662.508 417.585 598.632 481.462 519.681 481.495 C440.837 481.498 376.892 417.551 376.872 338.688 C376.892 259.899 440.856 195.934 519.717 195.877 Z"/>
<path stroke-width="1.214" d="M519.717 203.016 C594.636 203.036 655.367 263.837 655.384 338.684 C655.370 413.637 594.691 474.320 519.682 474.356 C444.781 474.351 384.032 413.603 384.014 338.685 C384.032 263.837 444.800 203.070 519.717 203.016 Z"/>
<path stroke-width="1.214" d="M519.712 209.801 C590.891 209.817 648.587 267.577 648.599 338.682 C648.585 409.891 590.940 467.536 519.682 467.572 C448.526 467.572 390.816 409.860 390.799 338.685 C390.816 267.577 448.545 209.852 519.712 209.801 Z"/>
<path stroke-width="1.214" d="M519.717 216.245 C587.331 216.259 642.142 271.136 642.155 338.684 C642.142 406.331 587.376 461.096 519.687 461.128 C452.086 461.126 397.261 406.301 397.244 338.686 C397.261 271.134 452.103 216.293 519.717 216.245 Z"/>
<path stroke-width="1.214" d="M519.712 222.368 C583.949 222.381 636.018 274.511 636.032 338.686 C636.018 402.950 583.992 454.975 519.682 455.003 C455.468 455.005 403.381 402.920 403.366 338.686 C403.379 274.514 455.480 222.412 519.712 222.368 Z"/>
<path stroke-width="1.214" d="M519.714 228.185 C580.740 228.196 630.203 277.721 630.214 338.687 C630.201 399.735 580.778 449.158 519.686 449.186 C458.678 449.192 409.197 399.712 409.184 338.689 C409.197 277.724 458.694 228.229 519.714 228.185 Z"/>
<path stroke-width="1.214" d="M519.711 233.707 C577.682 233.720 624.678 280.769 624.690 338.685 C624.678 396.684 577.724 443.637 519.686 443.664 C461.727 443.664 414.719 396.659 414.709 338.687 C414.722 280.769 461.743 233.748 519.711 233.707 Z"/>
<path stroke-width="1.214" d="M519.713 238.957 C574.787 238.972 619.431 283.665 619.441 338.684 C619.429 393.783 574.821 438.389 519.688 438.414 C464.631 438.417 419.972 393.762 419.959 338.686 C419.976 283.669 464.644 238.999 519.713 238.957 Z"/>
<path stroke-width="1.214" d="M519.711 243.944 C572.034 243.957 614.442 286.419 614.451 338.685 C614.444 391.029 572.069 433.406 519.690 433.428 C467.382 433.428 424.960 391.007 424.947 338.687 C424.964 286.419 467.397 243.984 519.711 243.944 Z"/>
<path stroke-width="1.214" d="M519.710 248.681 C569.415 248.696 609.707 289.032 609.713 338.684 C609.702 388.414 569.449 428.668 519.689 428.692 C469.996 428.693 429.696 388.393 429.685 338.690 C429.696 289.032 470.009 248.720 519.710 248.681 Z"/>
<path stroke-width="1.214" d="M519.711 253.180 C566.931 253.193 605.205 291.510 605.214 338.685 C605.205 385.924 566.963 424.166 519.690 424.191 C472.482 424.191 434.196 385.906 434.184 338.685 C434.196 291.513 472.496 253.215 519.711 253.180 Z"/>
<path stroke-width="1.214" d="M519.708 257.456 C564.565 257.467 600.932 293.872 600.937 338.684 C600.930 383.564 564.597 419.894 519.689 419.917 C474.845 419.917 438.472 383.544 438.462 338.686 C438.475 293.872 474.856 257.489 519.708 257.456 Z"/>
<path stroke-width="1.214" d="M519.708 261.518 C562.325 261.527 596.870 296.112 596.876 338.684 C596.866 381.319 562.353 415.834 519.689 415.854 C477.086 415.857 442.534 381.306 442.521 338.686 C442.536 296.112 477.100 261.548 519.708 261.518 Z"/>
<path stroke-width="1.214" d="M519.708 265.376 C560.193 265.385 593.014 298.240 593.018 338.685 C593.010 379.187 560.220 411.975 519.691 411.995 C479.220 411.995 446.394 379.173 446.381 338.685 C446.394 298.240 479.228 265.406 519.708 265.376 Z"/>
<path stroke-width="1.214" d="M519.708 269.040 C558.167 269.049 589.346 300.261 589.354 338.684 C589.343 377.161 558.190 408.309 519.693 408.331 C481.241 408.331 450.057 377.147 450.046 338.686 C450.057 300.261 481.251 269.068 519.708 269.040 Z"/>
<path stroke-width="1.214" d="M519.707 272.523 C556.247 272.533 585.862 302.185 585.870 338.684 C585.862 375.240 556.270 404.831 519.689 404.850 C483.163 404.849 453.539 375.227 453.528 338.687 C453.539 302.185 483.174 272.550 519.707 272.523 Z"/>
<path stroke-width="1.214" d="M519.707 275.832 C554.415 275.839 582.554 304.010 582.561 338.685 C582.553 373.411 554.440 401.524 519.690 401.540 C484.990 401.539 456.847 373.395 456.838 338.686 C456.847 304.012 484.999 275.856 519.707 275.832 Z"/>
<path stroke-width="1.214" d="M519.706 278.974 C552.680 278.980 579.411 305.744 579.417 338.684 C579.411 371.678 552.704 398.383 519.690 398.398 C486.726 398.398 459.990 371.661 459.980 338.686 C459.990 305.744 486.734 278.999 519.706 278.974 Z"/>
<path stroke-width="1.214" d="M519.708 281.959 C551.036 281.967 576.426 307.391 576.433 338.684 C576.428 370.026 551.055 395.398 519.695 395.413 C488.377 395.413 462.977 370.010 462.966 338.685 C462.977 307.391 488.385 281.982 519.708 281.959 Z"/>
<path stroke-width="1.214" d="M519.706 284.797 C549.463 284.803 573.590 308.952 573.597 338.685 C573.589 368.459 549.486 392.562 519.693 392.574 C489.941 392.574 465.810 368.447 465.803 338.685 C465.810 308.954 489.947 284.818 519.706 284.797 Z"/>
<path stroke-width="1.214" d="M519.708 287.491 C547.976 287.494 570.896 310.439 570.902 338.684 C570.895 366.972 547.999 389.868 519.694 389.882 C491.427 389.877 468.506 366.956 468.497 338.684 C468.506 310.439 491.437 287.512 519.708 287.491 Z"/>
<path stroke-width="1.214" d="M519.708 290.052 C546.563 290.055 568.337 311.853 568.341 338.682 C568.338 365.558 546.585 387.314 519.693 387.322 C492.841 387.322 471.066 365.546 471.057 338.685 C471.065 311.853 492.848 290.070 519.708 290.052 Z"/>
<path stroke-width="1.214" d="M519.708 292.482 C545.224 292.488 565.901 313.194 565.910 338.684 C565.907 364.213 545.243 384.878 519.695 384.890 C494.185 384.886 473.501 364.201 473.489 338.684 C473.498 313.194 494.190 292.503 519.708 292.482 Z"/>
<path stroke-width="1.214" d="M519.710 294.795 C543.945 294.796 563.594 314.469 563.598 338.682 C563.597 362.937 543.965 382.570 519.696 382.579 C495.462 382.577 475.811 362.923 475.801 338.682 C475.806 314.469 495.466 294.806 519.710 294.795 Z"/>
<path stroke-width="1.214" d="M519.710 296.986 C542.735 296.991 561.399 315.676 561.403 338.683 C561.403 361.724 542.751 380.376 519.696 380.384 C496.673 380.382 478.005 361.714 477.995 338.686 C478.002 315.676 496.678 297.001 519.710 296.986 Z"/>
<path stroke-width="1.214" d="M519.708 299.073 C541.583 299.073 559.316 316.828 559.318 338.683 C559.318 360.571 541.600 378.290 519.695 378.298 C497.824 378.297 480.090 360.560 480.080 338.683 C480.088 316.828 497.831 299.087 519.708 299.073 Z"/>
<path stroke-width="1.214" d="M519.708 301.053 C540.488 301.053 557.334 317.921 557.337 338.680 C557.336 359.475 540.505 376.308 519.695 376.317 C498.918 376.314 482.067 359.464 482.062 338.683 C482.066 317.919 498.922 301.063 519.708 301.053 Z"/>
<path stroke-width="1.214" d="M519.708 302.936 C539.445 302.936 555.452 318.960 555.455 338.685 C555.454 358.441 539.464 374.429 519.693 374.436 C499.957 374.436 483.948 358.429 483.942 338.685 C483.948 318.959 499.960 302.947 519.708 302.936 Z"/>
<path stroke-width="1.214" d="M519.706 304.720 C538.459 304.723 553.663 319.948 553.667 338.681 C553.664 357.452 538.474 372.644 519.698 372.650 C500.941 372.647 485.736 357.439 485.730 338.684 C485.734 319.946 500.947 304.735 519.706 304.720 Z"/>
<path stroke-width="1.214" d="M519.706 306.421 C537.522 306.421 551.966 320.885 551.967 338.685 C551.966 356.516 537.536 370.944 519.698 370.951 C501.881 370.950 487.437 356.504 487.431 338.685 C487.435 320.885 501.884 306.436 519.706 306.421 Z"/>
<path stroke-width="1.214" d="M519.708 308.034 C536.631 308.034 550.354 321.773 550.356 338.683 C550.354 355.620 536.646 369.332 519.700 369.338 C502.773 369.333 489.049 355.609 489.042 338.683 C489.048 321.773 502.777 308.044 519.708 308.034 Z"/>
<path stroke-width="1.214" d="M519.706 309.568 C535.784 309.568 548.819 322.620 548.822 338.684 C548.821 354.776 535.797 367.801 519.698 367.806 C503.618 367.806 490.580 354.765 490.575 338.684 C490.580 322.618 503.620 309.577 519.706 309.568 Z"/>
<path stroke-width="1.214" d="M519.706 311.023 C534.979 311.023 547.362 323.423 547.366 338.684 C547.362 353.970 534.991 366.342 519.698 366.349 C504.423 366.348 492.038 353.963 492.033 338.685 C492.037 323.423 504.425 311.031 519.706 311.023 Z"/>
<path stroke-width="1.214" d="M519.704 312.405 C534.215 312.408 545.977 324.188 545.984 338.683 C545.978 353.206 534.225 364.959 519.695 364.966 C505.184 364.966 493.418 353.201 493.416 338.684 C493.418 324.185 505.186 312.416 519.704 312.405 Z"/>
<path stroke-width="1.214" d="M519.706 313.720 C533.489 313.721 544.665 324.913 544.669 338.684 C544.665 352.482 533.500 363.648 519.698 363.654 C505.913 363.650 494.733 352.476 494.729 338.685 C494.733 324.908 505.914 313.728 519.706 313.720 Z"/>
<path stroke-width="1.214" d="M519.705 314.968 C532.799 314.971 543.417 325.600 543.421 338.685 C543.419 351.790 532.809 362.401 519.698 362.405 C506.599 362.404 495.980 351.783 495.977 338.685 C495.979 325.600 506.603 314.977 519.705 314.968 Z"/>
<path stroke-width="1.214" d="M519.705 316.154 C532.143 316.156 542.230 326.255 542.235 338.683 C542.232 351.136 532.152 361.212 519.696 361.218 C507.255 361.217 497.169 351.129 497.162 338.683 C497.165 326.252 507.257 316.160 519.705 316.154 Z"/>
<path stroke-width="1.214" d="M519.704 317.280 C531.521 317.283 541.103 326.878 541.108 338.684 C541.104 350.513 531.531 360.090 519.695 360.091 C507.879 360.090 498.294 350.507 498.292 338.684 C498.292 326.874 507.881 317.287 519.704 317.280 Z"/>
<path stroke-width="1.214" d="M519.704 318.351 C530.932 318.354 540.034 327.466 540.037 338.684 C540.036 349.921 530.940 359.017 519.698 359.022 C508.469 359.017 499.364 349.913 499.361 338.684 C499.362 327.466 508.470 318.358 519.704 318.351 Z"/>
<path stroke-width="1.214" d="M519.704 319.368 C530.371 319.368 539.018 328.032 539.020 338.686 C539.019 349.360 530.379 358.003 519.698 358.004 C509.031 358.004 500.383 349.354 500.378 338.686 C500.383 328.029 509.035 319.374 519.704 319.368 Z"/>
<path stroke-width="1.214" d="M519.702 320.333 C529.834 320.336 538.052 328.562 538.054 338.684 C538.054 348.824 529.845 357.033 519.696 357.039 C509.563 357.037 501.347 348.818 501.345 338.684 C501.347 328.562 509.568 320.339 519.702 320.333 Z"/>
<path stroke-width="1.214" d="M519.704 321.251 C529.329 321.255 537.133 329.068 537.136 338.685 C537.136 348.318 529.338 356.116 519.698 356.122 C510.070 356.120 502.266 348.314 502.263 338.685 C502.266 329.068 510.074 321.255 519.704 321.251 Z"/>
<path stroke-width="1.214" d="M519.702 322.124 C528.848 322.124 536.262 329.549 536.265 338.685 C536.265 347.837 528.855 355.245 519.696 355.248 C510.552 355.247 503.137 347.833 503.133 338.685 C503.137 329.548 510.555 322.129 519.702 322.124 Z"/>
<path stroke-width="1.214" d="M519.704 322.951 C528.392 322.951 535.434 330.005 535.437 338.683 C535.437 347.378 528.398 354.420 519.700 354.422 C511.009 354.422 503.966 347.375 503.962 338.683 C503.966 330.005 511.015 322.956 519.704 322.951 Z"/>
<path stroke-width="1.214" d="M519.704 323.738 C527.956 323.738 534.647 330.439 534.649 338.684 C534.649 346.944 527.963 353.633 519.700 353.633 C511.444 353.633 504.751 346.939 504.749 338.684 C504.751 330.436 511.447 323.740 519.704 323.738 Z"/>
<path stroke-width="1.214" d="M519.702 324.486 C527.540 324.486 533.897 330.852 533.902 338.687 C533.902 346.531 527.550 352.883 519.698 352.884 C511.855 352.884 505.497 346.527 505.496 338.683 C505.497 330.848 511.857 324.489 519.702 324.486 Z"/>
<path stroke-width="1.214" d="M839.428 383.015 C777.013 445.403 675.783 445.345 613.426 383.015 C551.008 320.570 551.008 219.480 613.454 156.984 C675.841 94.595 777.039 94.595 839.456 156.985 C901.788 219.346 901.788 320.570 839.428 383.015 Z"/>
<path stroke-width="1.214" d="M833.780 377.361 C774.485 436.629 678.317 436.576 619.076 377.361 C559.778 318.041 559.778 222.008 619.100 162.633 C678.369 103.368 774.510 103.368 833.804 162.633 C893.016 221.876 893.016 318.041 833.780 377.361 Z"/>
<path stroke-width="1.214" d="M828.409 371.994 C772.079 428.298 680.721 428.247 624.439 371.994 C568.110 315.639 568.110 224.407 624.465 167.999 C680.770 111.698 772.104 111.698 828.435 167.999 C884.687 224.281 884.687 315.639 828.409 371.994 Z"/>
<path stroke-width="1.214" d="M823.311 366.891 C769.794 420.383 683.003 420.333 629.538 366.891 C576.027 313.355 576.027 226.687 629.561 173.100 C683.050 119.614 769.818 119.614 823.332 173.100 C876.774 226.565 876.774 313.355 823.311 366.891 Z"/>
<path stroke-width="1.214" d="M818.465 362.048 C767.624 412.865 685.173 412.816 634.382 362.048 C583.546 311.189 583.546 228.853 634.405 177.947 C685.220 127.131 767.649 127.131 818.486 177.947 C869.254 228.738 869.254 311.189 818.465 362.048 Z"/>
<path stroke-width="1.214" d="M813.862 357.445 C765.565 405.720 687.237 405.676 638.984 357.445 C590.687 309.128 590.687 230.912 639.008 182.548 C687.284 134.275 765.589 134.275 813.883 182.550 C862.113 230.802 862.113 309.128 813.862 357.445 Z"/>
<path stroke-width="1.214" d="M809.489 353.073 C763.606 398.935 689.193 398.893 643.356 353.073 C597.474 307.172 597.474 232.866 643.376 186.920 C689.237 141.058 763.624 141.058 809.510 186.921 C855.326 232.760 855.326 307.173 809.489 353.073 Z"/>
<path stroke-width="1.214" d="M805.333 348.919 C761.748 392.487 691.052 392.444 647.509 348.919 C603.922 305.311 603.922 234.720 647.525 191.073 C691.096 147.505 761.767 147.505 805.354 191.073 C848.882 234.620 848.882 305.311 805.333 348.919 Z"/>
<path stroke-width="1.214" d="M801.390 344.972 C759.981 386.363 692.823 386.324 651.454 344.972 C610.044 303.545 610.044 236.484 651.474 195.017 C692.861 153.631 759.998 153.631 801.410 195.020 C842.758 236.389 842.758 303.545 801.390 344.972 Z"/>
<path stroke-width="1.214" d="M797.639 341.224 C758.300 380.545 694.501 380.506 655.201 341.222 C615.865 301.870 615.865 238.161 655.220 198.767 C694.535 159.449 758.318 159.449 797.657 198.767 C836.940 238.069 836.940 301.870 797.639 341.224 Z"/>
<path stroke-width="1.214" d="M794.082 337.661 C756.709 375.017 696.099 374.979 658.763 337.661 C621.389 300.275 621.389 239.751 658.778 202.329 C696.131 164.973 756.725 164.973 794.096 202.329 C831.414 239.667 831.414 300.275 794.082 337.661 Z"/>
<path stroke-width="1.214" d="M790.693 334.278 C755.189 369.765 697.612 369.729 662.142 334.278 C626.641 298.757 626.641 241.262 662.160 205.709 C697.646 170.226 755.206 170.226 790.709 205.713 C826.162 241.180 826.162 298.757 790.693 334.278 Z"/>
<path stroke-width="1.214" d="M787.482 331.062 C753.753 364.777 699.055 364.744 665.361 331.062 C631.630 297.321 631.630 242.699 665.375 208.926 C699.085 175.213 753.766 175.213 787.496 208.926 C821.173 242.623 821.173 297.321 787.482 331.062 Z"/>
<path stroke-width="1.214" d="M784.428 328.008 C752.385 360.036 700.418 360.006 668.412 328.008 C636.369 295.950 636.369 244.064 668.425 211.976 C700.451 179.952 752.399 179.952 784.441 211.976 C816.436 243.988 816.436 295.950 784.428 328.008 Z"/>
<path stroke-width="1.214" d="M781.525 325.108 C751.086 355.535 701.719 355.505 671.314 325.108 C640.872 294.655 640.872 245.361 671.323 214.880 C701.749 184.455 751.098 184.455 781.542 214.880 C811.934 245.292 811.934 294.655 781.525 325.108 Z"/>
<path stroke-width="1.214" d="M778.771 322.349 C749.854 351.257 702.953 351.231 674.065 322.349 C645.148 293.421 645.149 246.588 674.076 217.635 C702.979 188.729 749.865 188.729 778.781 217.635 C807.659 246.525 807.659 293.421 778.771 322.349 Z"/>
<path stroke-width="1.214" d="M776.154 319.735 C748.678 347.193 704.127 347.170 676.684 319.735 C649.212 292.253 649.212 247.763 676.694 220.256 C704.151 192.793 748.690 192.793 776.166 220.256 C803.593 247.699 803.593 292.253 776.154 319.735 Z"/>
<path stroke-width="1.214" d="M773.666 317.245 C747.566 343.329 705.240 343.308 679.169 317.245 C653.072 291.137 653.072 248.870 679.180 222.737 C705.264 196.654 747.575 196.654 773.676 222.738 C799.737 248.810 799.737 291.137 773.666 317.245 Z"/>
<path stroke-width="1.214" d="M771.301 314.884 C746.508 339.665 706.297 339.644 681.530 314.884 C656.739 290.082 656.739 249.928 681.540 225.101 C706.322 200.321 746.519 200.321 771.313 225.101 C796.071 249.871 796.071 290.082 771.301 314.884 Z"/>
<path stroke-width="1.214" d="M769.057 312.639 C745.504 336.183 707.304 336.161 683.775 312.639 C660.220 289.076 660.221 250.934 683.785 227.345 C707.328 203.804 745.512 203.804 769.070 227.345 C792.588 250.880 792.588 289.076 769.057 312.639 Z"/>
<path stroke-width="1.214" d="M766.924 310.505 C744.552 332.873 708.260 332.853 685.907 310.505 C663.531 288.120 663.531 251.884 685.916 229.479 C708.282 207.113 744.561 207.113 766.937 229.479 C789.278 251.834 789.278 288.120 766.924 310.505 Z"/>
<path stroke-width="1.214" d="M764.900 308.481 C743.644 329.728 709.169 329.710 687.933 308.481 C666.674 287.214 666.674 252.790 687.942 231.504 C709.188 210.256 743.652 210.256 764.909 231.504 C786.135 252.739 786.135 287.214 764.900 308.481 Z"/>
<path stroke-width="1.214" d="M762.974 306.557 C742.781 326.742 710.030 326.722 689.857 306.557 C669.662 286.354 669.662 253.648 689.862 233.426 C710.048 213.245 742.790 213.245 762.984 233.426 C783.149 253.606 783.149 286.354 762.974 306.557 Z"/>
<path stroke-width="1.214" d="M761.146 304.729 C741.965 323.905 710.849 323.885 691.683 304.729 C672.500 285.534 672.500 254.466 691.691 235.253 C710.868 216.082 741.969 216.082 761.156 235.253 C780.312 254.422 780.312 285.534 761.146 304.729 Z"/>
<path stroke-width="1.214" d="M759.408 302.991 C741.188 321.208 711.624 321.189 693.420 302.991 C675.192 284.755 675.193 255.241 693.427 236.991 C711.645 218.776 741.192 218.776 759.420 236.991 C777.618 255.199 777.618 284.755 759.408 302.991 Z"/>
<path stroke-width="1.214" d="M757.757 301.341 C740.449 318.647 712.365 318.629 695.070 301.341 C677.753 284.018 677.754 255.979 695.076 238.640 C712.383 221.338 740.452 221.338 757.771 238.640 C775.057 255.938 775.057 284.018 757.757 301.341 Z"/>
<path stroke-width="1.214" d="M756.191 299.771 C739.746 316.213 713.071 316.197 696.639 299.771 C680.184 283.315 680.184 256.679 696.644 240.204 C713.087 223.770 739.750 223.770 756.203 240.204 C772.626 256.640 772.626 283.315 756.191 299.771 Z"/>
<path stroke-width="1.214" d="M754.700 298.284 C739.080 313.904 713.734 313.886 698.127 298.284 C682.497 282.651 682.497 257.345 698.131 241.699 C713.751 226.081 739.081 226.081 754.712 241.699 C770.314 257.307 770.314 282.651 754.700 298.284 Z"/>
<path stroke-width="1.214" d="M753.286 296.868 C738.444 311.706 714.370 311.691 699.540 296.868 C684.691 282.015 684.691 257.974 699.544 243.110 C714.384 228.275 738.448 228.275 753.298 243.110 C768.119 257.943 768.119 282.015 753.286 296.868 Z"/>
<path stroke-width="1.214" d="M751.942 295.525 C737.844 309.623 714.970 309.607 700.882 295.525 C686.777 281.415 686.778 258.577 700.886 244.456 C714.986 230.360 737.846 230.360 751.952 244.456 C766.033 258.544 766.033 281.415 751.942 295.525 Z"/>
<path stroke-width="1.214" d="M750.664 294.250 C737.271 307.641 715.541 307.626 702.161 294.250 C688.759 280.844 688.759 259.148 702.165 245.730 C715.558 232.342 737.276 232.342 750.677 245.730 C764.052 259.118 764.052 280.844 750.664 294.250 Z"/>
<path stroke-width="1.214" d="M749.453 293.037 C736.729 305.758 716.086 305.744 703.374 293.037 C690.641 280.303 690.641 259.691 703.376 246.946 C716.100 234.224 736.732 234.224 749.462 246.946 C762.169 259.661 762.169 280.303 749.453 293.037 Z"/>
<path stroke-width="1.214" d="M748.298 291.884 C736.212 303.969 716.601 303.957 704.526 291.884 C692.430 279.785 692.430 260.205 704.527 248.098 C716.614 236.014 736.216 236.014 748.311 248.098 C760.382 260.177 760.382 279.785 748.298 291.884 Z"/>
<path stroke-width="1.214" d="M747.205 290.789 C735.722 302.270 717.092 302.257 705.618 290.789 C694.130 279.295 694.130 260.694 705.620 249.192 C717.102 237.712 735.725 237.712 747.216 249.192 C758.683 260.668 758.683 279.295 747.205 290.789 Z"/>
<path stroke-width="1.214" d="M746.164 289.748 C735.257 300.655 717.558 300.644 706.659 289.748 C695.742 278.830 695.742 261.159 706.659 250.231 C717.570 239.325 735.260 239.325 746.175 250.231 C757.070 261.135 757.070 278.830 746.164 289.748 Z"/>
<path stroke-width="1.214" d="M745.178 288.759 C734.816 299.122 718.001 299.111 707.645 288.759 C697.277 278.387 697.277 261.598 707.649 251.220 C718.012 240.859 734.818 240.859 745.185 251.220 C755.538 261.576 755.538 278.387 745.178 288.759 Z"/>
<path stroke-width="1.214" d="M744.238 287.820 C734.396 297.664 718.422 297.653 708.584 287.820 C698.733 277.966 698.733 262.018 708.587 252.157 C718.431 242.316 734.396 242.316 744.247 252.157 C754.081 261.997 754.081 277.966 744.238 287.820 Z"/>
<path stroke-width="1.214" d="M743.348 286.929 C733.995 296.280 718.821 296.271 709.475 286.929 C700.118 277.568 700.118 262.417 709.479 253.049 C718.831 243.699 733.998 243.699 743.355 253.049 C752.698 262.396 752.698 277.568 743.348 286.929 Z"/>
<path stroke-width="1.214" d="M742.501 286.083 C733.616 294.965 719.199 294.959 710.322 286.083 C701.431 277.189 701.431 262.797 710.324 253.895 C719.208 245.015 733.616 245.015 742.508 253.895 C751.382 262.777 751.382 277.189 742.501 286.083 Z"/>
<path stroke-width="1.214" d="M741.695 285.279 C733.258 293.717 719.560 293.707 711.125 285.279 C702.680 276.829 702.680 263.154 711.128 254.701 C719.570 246.262 733.258 246.262 741.703 254.701 C750.133 263.137 750.133 276.829 741.695 285.279 Z"/>
<path stroke-width="1.214" d="M740.933 284.515 C732.912 292.532 719.905 292.521 711.890 284.515 C703.867 276.487 703.867 263.498 711.893 255.464 C719.912 247.449 732.916 247.449 740.939 255.464 C748.949 263.479 748.949 276.487 740.933 284.515 Z"/>
<path stroke-width="1.214" d="M740.207 283.788 C732.587 291.404 720.228 291.397 712.614 283.788 C704.994 276.163 704.994 263.822 712.617 256.192 C720.236 248.576 732.588 248.576 740.211 256.192 C747.819 263.806 747.819 276.163 740.207 283.788 Z"/>
<path stroke-width="1.214" d="M739.517 283.096 C732.280 290.331 720.537 290.324 713.305 283.096 C706.066 275.853 706.066 264.130 713.305 256.880 C720.546 249.646 732.281 249.646 739.522 256.880 C746.751 264.111 746.751 275.853 739.517 283.096 Z"/>
<path stroke-width="1.214" d="M738.859 282.442 C731.986 289.317 720.831 289.309 713.961 282.442 C707.083 275.563 707.083 264.424 713.963 257.537 C720.838 250.664 731.989 250.664 738.869 257.537 C745.733 264.407 745.733 275.563 738.859 282.442 Z"/>
<path stroke-width="1.214" d="M738.237 281.820 C731.706 288.350 721.109 288.342 714.586 281.820 C708.048 275.283 708.048 264.704 714.586 258.158 C721.118 251.630 731.708 251.630 738.242 258.158 C744.766 264.687 744.766 275.283 738.237 281.820 Z"/>
<path stroke-width="1.214" d="M737.646 281.228 C731.442 287.431 721.375 287.424 715.176 281.228 C708.965 275.018 708.965 264.966 715.176 258.750 C721.383 252.549 731.443 252.549 737.652 258.750 C743.849 264.951 743.849 275.018 737.646 281.228 Z"/>
<path stroke-width="1.214" d="M737.083 280.667 C731.187 286.561 721.626 286.552 715.735 280.667 C709.839 274.767 709.839 265.220 715.737 259.313 C721.632 253.421 731.190 253.421 737.088 259.313 C742.977 265.204 742.977 274.767 737.083 280.667 Z"/>
<path stroke-width="1.214" d="M736.551 280.130 C730.950 285.732 721.864 285.724 716.270 280.130 C710.666 274.527 710.666 265.455 716.271 259.848 C721.870 254.250 730.952 254.250 736.555 259.848 C742.148 265.444 742.148 274.527 736.551 280.130 Z"/>
<path stroke-width="1.214" d="M736.043 279.624 C730.725 284.944 722.093 284.937 716.776 279.624 C711.454 274.301 711.454 265.682 716.777 260.355 C722.100 255.035 730.727 255.035 736.048 260.355 C741.362 265.670 741.362 274.301 736.043 279.624 Z"/>
<path stroke-width="1.214" d="M735.562 279.142 C730.509 284.198 722.310 284.189 717.258 279.142 C712.203 274.085 712.203 265.898 717.260 260.836 C722.316 255.784 730.511 255.784 735.567 260.836 C740.615 265.888 740.615 274.085 735.562 279.142 Z"/>
<path stroke-width="1.214" d="M735.105 278.685 C730.303 283.486 722.515 283.479 717.716 278.685 C712.912 273.881 712.912 266.102 717.717 261.295 C722.520 256.494 730.304 256.494 735.108 261.295 C739.905 266.092 739.905 273.881 735.105 278.685 Z"/>
</g><g fill="#ffffff" stroke="none" fill-rule="evenodd">
<path d="M676.749 422.466 C679.111 422.466 681.026 424.381 681.026 426.742 C681.026 429.107 679.111 431.021 676.749 431.021 C674.386 431.021 672.472 429.107 672.472 426.742 C672.472 424.381 674.386 422.466 676.749 422.466 M676.747 437.660 C682.785 437.660 687.669 432.779 687.669 426.745 C687.668 420.720 682.779 415.824 676.752 415.824 C670.720 415.827 665.831 420.719 665.828 426.741 C665.831 432.773 670.720 437.660 676.747 437.660 Z"/>
<path d="M519.700 333.401 C522.618 333.401 524.984 335.767 524.984 338.686 C524.984 341.605 522.618 343.971 519.700 343.971 C516.780 343.971 514.414 341.605 514.414 338.686 C514.414 335.767 516.780 333.401 519.700 333.401 M519.698 352.176 C527.157 352.176 533.191 346.143 533.191 338.689 C533.190 331.245 527.151 325.197 519.702 325.197 C512.251 325.201 506.208 331.243 506.206 338.684 C506.211 346.136 512.249 352.176 519.698 352.176 Z"/>
<path d="M726.407 264.702 C729.327 264.702 731.693 267.068 731.693 269.987 C731.693 272.906 729.327 275.272 726.407 275.272 C723.489 275.272 721.123 272.906 721.123 269.987 C721.123 267.068 723.489 264.702 726.407 264.702 M726.406 283.477 C733.866 283.477 739.900 277.444 739.900 269.990 C739.899 262.546 733.859 256.497 726.411 256.497 C718.960 256.502 712.917 262.544 712.916 269.985 C712.919 277.437 718.959 283.477 726.406 283.477 Z"/>
</g>
</g>
</g><g transform="translate(497 278) scale(0.57333)"><path fill="#fff" fill-rule="evenodd" d="M654 250.5C653.2 249.6 651 249 648.1 249C645.6 249 642.6 248.3 641.6 247.5C640.5 246.7 638.7 246 637.5 246C636.3 246 634.5 245.3 633.4 244.5C632.4 243.7 630.8 243 629.9 243C629 243 625.8 241.7 622.7 240C619.6 238.3 616.2 237 615.1 237C613.1 237 609 241.3 609 243.5C609 247.1 600.2 250.3 596.1 248.1C594.5 247.2 594 246 594 242.5C594 240.1 593.3 230.8 592.5 221.8C591.5 211.6 591 198 591.2 185.5L591.5 165.5L596.4 165.2C602.1 164.8 606 167.6 606 172C606 173.4 606.7 175.5 607.5 176.6C608.3 177.6 609 179.4 609 180.6C609 181.7 609.7 183.5 610.5 184.6C611.3 185.6 612 187.5 612 188.6C612 189.8 612.7 191.3 613.5 192C614.3 192.7 615 194 615 195C615 196 615.7 197.3 616.5 198C617.3 198.7 618 199.8 618 200.6C618 201.3 619.3 203.4 620.8 205.2C622.4 207 624.6 210.1 625.8 212C630.8 220.2 649.1 234 655 234C655.9 234 657.4 234.6 658.5 235.4C659.6 236.1 663.9 237.1 668 237.4C678.4 238.4 680.5 238.4 689 237.5C695.7 236.8 698.8 235.9 704 232.9C704.8 232.4 706.6 231.5 708 230.9C712.2 229.2 715.8 225 719.6 217.6C723.2 210.5 723.2 210.5 723.2 196.8C723.2 183.1 723.2 183 719.7 175.8C715.6 167.4 705.1 155.8 699.7 153.5C697.7 152.7 695.9 151.6 695.5 151C695.2 150.5 694.1 150 693.1 150C692.1 150 690.7 149.3 690 148.5C689.3 147.7 687.8 147 686.6 147C685.5 147 683.6 146.3 682.6 145.5C681.5 144.7 679.6 144 678.4 144C677.2 144 675.7 143.3 675 142.5C674.3 141.7 672.8 141 671.6 141C670.4 141 668.5 140.3 667.4 139.5C666.4 138.7 664.5 138 663.4 138C662.2 138 660.7 137.3 660 136.5C659.3 135.7 657.8 135 656.6 135C655.4 135 653.5 134.3 652.4 133.5C651.4 132.7 649.5 132 648.4 132C647.2 132 645.7 131.3 645 130.5C644.3 129.7 643 129 642 129C641 129 639.7 128.3 639 127.5C638.3 126.7 637 126 636 126C635 126 633.7 125.3 633 124.5C632.3 123.7 631.2 123 630.6 123C625 123 603 98.8 603 92.6C603 91.9 602.3 90.7 601.5 90C600.6 89.3 600 87.1 600 84.6C600 82.4 599.3 78.3 598.5 75.6C596.6 69.4 596.6 64.4 598.5 59C599.3 56.7 600 53.1 600 51.1C600 49.1 600.7 46.6 601.5 45.6C602.3 44.5 603 42.9 603 41.9C603 41 603.7 39.7 604.5 39C605.3 38.3 606 37.1 606 36.3C606 33.5 617.3 19.8 622.4 16.4C625.2 14.6 628.6 12.2 630 11.1C631.4 10 633.2 9 634 9C634.9 9 636.1 8.5 636.8 7.8C638.5 6.1 645 3.8 649.8 3.3C652.2 3 654.4 2.2 654.7 1.4C655.5 -0.7 686.5 -0.6 688.6 1.5C689.5 2.3 691.8 3 693.8 3C695.8 3 698.4 3.7 699.4 4.5C700.5 5.3 702.4 6 703.6 6C704.8 6 706.3 6.7 707 7.5C707.7 8.3 709.3 9 710.6 9C711.8 9 713.1 9.4 713.4 9.9C714.3 11.4 722.4 15 724.8 15C726 15 727.4 14 728.1 12.7C730.8 7.5 733.1 6 738.6 6C746.7 6 746.3 4.1 746.4 46.3L746.5 83.5L739.5 83.5C732.5 83.5 732.5 83.5 732.2 80.1C732 78.2 731.2 75.7 730.4 74.6C729.6 73.5 729 71.4 729 70C729 68.5 728.3 66.5 727.5 65.4C726.7 64.4 726 62.3 726 60.9C726 59.4 725.3 57.7 724.5 57C723.7 56.3 723 55.2 723 54.5C723 45 697.9 18 689.1 18C688.1 18 686.7 17.3 686 16.5C684.2 14.3 655.8 14.3 654 16.5C653.3 17.3 652 18 651 18C650 18 648.7 18.7 648 19.5C647.3 20.3 646.2 21 645.6 21C643.3 21 636.1 28.7 633.1 34.2C630.1 39.7 630 40.3 630 52.3C630 62.2 630.3 65 631.5 66C632.3 66.7 633 68 633 69C633 70 633.7 71.3 634.5 72C635.3 72.7 636 74 636 74.9C636 78.5 649.6 89.7 659.5 94.3C661.7 95.3 664.8 96.8 666.3 97.6C667.9 98.4 670 99 671 99C671.9 99 673.3 99.7 674 100.5C674.7 101.3 676.3 102 677.5 102C678.7 102 680.3 102.7 681 103.5C681.7 104.3 683.2 105 684.4 105C685.5 105 687.4 105.7 688.4 106.5C689.5 107.3 691.4 108 692.6 108C693.8 108 695.3 108.7 696 109.5C696.7 110.3 698.3 111 699.5 111C700.7 111 702.3 111.7 703 112.5C703.7 113.3 704.8 114 705.6 114C706.3 114 710.9 116.1 715.7 118.7C720.5 121.3 726.1 124.2 728.1 125.2C736.6 129.6 753 149.8 753 156C753 156.9 753.7 158.3 754.5 159C755.7 160 756 163.6 756 179C756 194.8 755.8 197.9 754.5 198.4C753.6 198.7 753 200.2 753 201.8C753 203.4 751.9 206.7 750.5 209.1C749.2 211.5 747.6 214.6 747 216C744.3 222.1 720.8 243 716.6 243C715.8 243 714.7 243.7 714 244.5C713.3 245.3 711.8 246 710.6 246C709.5 246 707.6 246.7 706.6 247.5C705.5 248.3 702.9 249 700.9 249C698.8 249 696.5 249.7 695.6 250.5C694.4 251.7 690.6 252 674.7 252C658.6 252 655 251.7 654 250.5zM24.5 246.9C16.8 246.5 8.1 246.2 5.2 246.1C0 246 0 246 0 241.5C0 237 0 237 6.8 237C10.7 236.9 14.5 236.3 16 235.5C17.4 234.7 20.3 234.1 22.6 234C26.7 234 34.7 229.4 35.4 226.7C35.6 226 36.4 223.2 37.3 220.5C39.4 214.2 39.2 43.7 37.1 38.7C36.5 37.1 36 34.6 36 33.1C36 28.6 26.9 21 21.5 21C19.8 21 17.5 20.3 16.4 19.5C15.4 18.7 12.3 18 9.5 18C2.8 17.9 0 15.6 0 10.1L0 6L54.2 6.2L108.5 6.5L108.8 10.2C109.4 16.9 108 18 99.2 18C94 18.1 90.9 18.5 89.6 19.5C88.5 20.3 86.6 21 85.4 21C81.4 21 76.1 25.2 75 29.2C74.4 31.2 73.5 33.2 73 33.5C72.4 33.9 72 67.6 72 126.1C72 218.1 72 218.1 74.6 222.5C78.1 228.5 86.4 234 92 234C94.3 234 97.1 234.5 98.3 235.2C99.5 235.8 102.1 236.6 104 236.9C107.2 237.5 107.5 237.9 107.8 241.1C108 243.4 107.6 245.1 106.6 245.9C104.9 247.3 49 248 24.5 246.9zM159.3 247.1C141.6 246.4 140.7 246.1 141.2 240.9C141.5 237.5 141.5 237.5 147.5 237C150.8 236.7 154.5 235.9 155.7 235.2C156.9 234.6 159 234 160.4 234C164.1 234 169.6 230.4 171.9 226.4C175.1 221.1 175.2 34.3 172.1 28.2C170 24.1 165.5 21 161.8 21C160.5 21 158.5 20.3 157.4 19.5C156.2 18.6 153.2 18.1 149.4 18C142.1 18 140.8 16.9 141.2 10.8L141.5 6.5L205.8 6.2C261.5 6 270.5 6.2 273 7.5C274.6 8.3 277.7 9 279.8 9C282.1 9 284.3 9.6 285 10.5C285.7 11.3 287.2 12 288.3 12C289.4 12 292.5 13.4 295.2 15C297.8 16.6 300.4 18 300.9 18C302.7 18 319.2 35.2 320.6 38.5C321.3 40.3 322.4 42.1 323 42.5C323.5 42.8 324 44.6 324 46.3C324 48.1 324.7 50.4 325.5 51.4C327.6 54.2 327.6 75.6 325.5 80.7C324.7 82.6 324 85.2 324 86.4C324 87.5 323.3 89.4 322.5 90.4C321.7 91.5 321 93.5 321 94.9C320.9 96.3 319.6 99.1 318 101C316.3 102.9 315 104.9 315 105.5C315 108.6 291.2 129 287.6 129C286.8 129 285.7 129.7 285 130.5C284.3 131.3 282.7 132 281.5 132C280.3 132 278.7 132.7 278 133.5C277.3 134.3 275.6 135 274.1 135C272.7 135 270.6 135.7 269.6 136.5C268.5 137.3 265.6 138 263.2 138C260.8 138 257.9 138.6 256.7 139.3C255.2 140.1 247.4 140.7 232.5 141L210.5 141.5L210.2 181.8C210 222.1 210 222.1 212.4 225.6C216.1 231 220.7 234 225.5 234C227.8 234 231.1 234.5 232.8 235.1C234.5 235.7 238 236.5 240.7 236.8C245.3 237.5 245.5 237.7 245.8 240.9C246.5 248.1 246.9 248 209.1 247.8C190.6 247.7 168.2 247.4 159.3 247.1zM332.6 246.1C328.3 241.4 334.5 234 342.7 234C345.1 234 347.3 233.4 348 232.5C348.7 231.7 350 231 350.9 231C355.8 231 372 210.1 372 203.9C372 203 372.7 201.7 373.5 201C374.3 200.3 375 199 375 198.1C375 197.1 375.7 195.5 376.5 194.4C377.3 193.4 378 191.7 378 190.7C378 189.6 378.7 187.5 379.5 185.9C380.3 184.3 381.7 181.7 382.5 180.1C383.3 178.5 384 176.4 384 175.5C384 174.6 384.6 172.6 385.3 171.2C386.1 169.7 387.4 167 388.3 165.2C389.2 163.3 390 161.1 390 160.1C390 159.2 390.7 157.5 391.5 156.4C392.3 155.4 393 153.7 393 152.8C393 151.2 393.6 149.8 397.4 142.2C398.3 140.3 399 138.1 399 137.1C399 136.2 399.7 134.5 400.5 133.4C401.3 132.4 402 130.6 402 129.5C402 128.4 402.7 126.6 403.5 125.6C404.3 124.5 405 122.7 405 121.6C405 120.4 405.7 118.6 406.5 117.6C407.3 116.5 408 114.7 408 113.6C408 112.4 408.7 110.6 409.5 109.6C410.3 108.5 411 106.6 411 105.4C411 104.2 411.7 102.7 412.5 102C413.3 101.3 414 99.8 414 98.6C414 97.4 414.7 95.5 415.5 94.4C416.3 93.4 417 91.5 417 90.4C417 89.2 417.7 87.7 418.5 87C419.3 86.3 420 84.8 420 83.6C420 82.4 420.7 80.5 421.5 79.4C422.3 78.4 423 76.5 423 75.4C423 74.2 423.7 72.7 424.5 72C425.3 71.3 426 69.7 426 68.5C426 67.2 426.8 64.7 427.7 62.8C428.6 61 429.9 58.3 430.7 56.8C431.4 55.4 432 53.4 432 52.3C432 51.3 432.7 49.6 433.5 48.6C434.3 47.5 435 45.7 435 44.6C435 43.4 435.7 41.6 436.5 40.6C437.3 39.5 438 37.6 438 36.4C438 35.2 438.7 33.7 439.5 33C440.3 32.3 441 30.8 441 29.6C441 28.4 441.7 26.5 442.5 25.4C443.3 24.4 444 22.6 444 21.4C444 20.3 444.7 18.5 445.5 17.4C446.3 16.4 447 14.6 447 13.5C447 12.4 447.7 10.6 448.5 9.6C449.3 8.5 450 6.8 450 5.8C450 3.3 454.5 1.7 459.5 2.4C464 2.9 468 6.7 468 10.3C468 11.5 468.7 13.4 469.5 14.4C470.3 15.5 471 17.3 471 18.4C471 19.6 471.7 21.4 472.5 22.4C473.3 23.5 474 25.3 474 26.4C474 27.6 474.7 29.4 475.5 30.4C476.3 31.5 477 33.4 477 34.6C477 35.8 477.7 37.3 478.5 38C479.3 38.7 480 40.5 480 42C480 43.5 480.7 45.3 481.5 46C482.3 46.7 483 48.5 483 50C483 51.5 483.7 53.3 484.5 54C485.3 54.7 486 56.2 486 57.4C486 58.5 486.7 60.4 487.5 61.4C488.3 62.5 489 64.4 489 65.6C489 66.8 489.7 68.3 490.5 69C491.3 69.7 492 71.2 492 72.4C492 73.6 492.7 75.5 493.5 76.6C494.3 77.6 495 79.5 495 80.6C495 81.8 495.7 83.3 496.5 84C497.3 84.7 498 86.3 498 87.5C498 88.8 498.8 91.3 499.7 93.2C500.6 95 501.9 97.7 502.7 99.2C503.4 100.6 504 102.7 504 103.7C504 104.8 504.7 106.5 505.5 107.6C506.3 108.6 507 110.4 507 111.5C507 112.6 507.7 114.4 508.5 115.4C509.3 116.5 510 118.4 510 119.6C510 120.8 510.7 122.3 511.5 123C512.3 123.7 513 125.2 513 126.4C513 127.6 513.7 129.5 514.5 130.6C515.3 131.6 516 133.4 516 134.6C516 135.7 516.7 137.5 517.5 138.6C518.3 139.6 519 141.4 519 142.6C519 143.7 519.7 145.5 520.5 146.6C521.3 147.6 522 149.4 522 150.6C522 151.7 522.7 153.5 523.5 154.6C524.3 155.6 525 157.5 525 158.6C525 159.8 525.7 161.3 526.5 162C527.3 162.7 528 164.3 528 165.5C528 167.7 528.5 169 532.4 176.8C533.3 178.7 534 181.2 534 182.5C534 183.7 534.7 185.3 535.5 186C536.3 186.7 537 188.2 537 189.4C537 190.5 537.7 192.4 538.5 193.4C539.3 194.5 540 196.4 540 197.6C540 198.8 540.7 200.3 541.5 201C542.3 201.7 543 203.2 543 204.4C543 205.5 543.7 207.4 544.5 208.4C545.3 209.5 546 211.2 546 212.1C546 214.6 553.5 225.5 556.7 227.7C561.8 231.2 568 234 570.8 234C572.3 234 575.4 234.9 577.8 236C581.7 237.8 582 238.2 582 241.8C582 248.3 584.2 248 531.9 248C477.9 248 478.5 248.1 480.6 241C481.6 237.3 486.7 235.2 497 234.3C500 234 503.2 233.2 504 232.5C504.8 231.8 506.4 231 507.4 230.8C511 230.2 513.5 224.4 511.6 221.5C510.7 220.2 510 218 510 216.7C510 215.3 509.3 213.7 508.5 213C507.7 212.3 507 210.5 507 209.1C507 207.6 506.3 205.5 505.5 204.4C504.7 203.4 504 201.6 504 200.5C504 199.4 503.3 197.6 502.5 196.6C501.7 195.5 501 193.7 501 192.6C501 191.4 500.3 189.6 499.5 188.6C498.7 187.5 498 185.7 498 184.5C498 183.3 497.3 181.5 496.5 180.4C495.7 179.4 495 177.6 495 176.4C495 175.3 494.3 173.5 493.5 172.4C492.7 171.4 492 169.5 492 168.4C492 163.2 490.3 163 447.5 163C403.7 163 402 163.2 402 168.8C402 170.3 401.3 172.4 400.5 173.4C399.7 174.5 399 176.3 399 177.4C399 178.6 398.3 180.4 397.5 181.4C396.7 182.5 396 184.5 396 185.9C396 187.3 395.3 189.4 394.5 190.4C393.7 191.5 393 193.5 393 194.9C393 196.3 392.3 198.4 391.5 199.4C390.7 200.5 390 202.8 390 204.4C389.9 206.1 389.3 208.6 388.5 210C385.5 215.2 386.5 223.2 390.8 227.3C392.9 229.3 395.5 231 396.6 231C397.7 231 399.1 231.5 399.8 232.2C400.5 232.9 403.6 233.7 406.8 234.1C418.7 235.6 422.5 237.3 422.8 241.2C423.4 248.2 424.9 248 377.1 248C336.1 248 334.2 247.9 332.6 246.1zM482.8 145.9C483 143.6 482.6 141.9 481.6 141C480.7 140.3 480 138.8 480 137.6C480 136.4 479.3 134.5 478.5 133.4C477.7 132.4 477 130.5 477 129.4C477 128.2 476.3 126.7 475.5 126C474.7 125.3 474 123.8 474 122.6C474 121.4 473.3 119.5 472.5 118.4C471.7 117.4 471 115.5 471 114.4C471 113.2 470.3 111.7 469.5 111C468.7 110.3 468 108.8 468 107.6C468 106.4 467.3 104.5 466.5 103.4C465.7 102.4 465 100.5 465 99.4C465 98.2 464.3 96.7 463.5 96C462.7 95.3 462 93.8 462 92.6C462 91.4 461.3 89.5 460.5 88.4C459.7 87.4 459 85.6 459 84.5C459 83.4 458.3 81.6 457.5 80.6C456.7 79.5 456 77.8 456 76.9C456 75.9 455.4 73.9 454.6 72.3C451.8 66.5 450.1 62.4 449.5 59.7C448.7 56 444.7 56.2 444.2 60C444 61.3 443.2 63.3 442.4 64.4C441.6 65.5 441 67.4 441 68.6C441 69.8 440.3 71.3 439.5 72C438.7 72.7 438 74.2 438 75.4C438 76.6 437.3 78.5 436.5 79.6C435.7 80.6 435 82.4 435 83.6C435 84.7 434.3 86.5 433.5 87.6C432.7 88.6 432 90.4 432 91.6C432 92.7 431.3 94.5 430.5 95.6C429.7 96.6 429 98.4 429 99.5C429 100.6 428.3 102.4 427.5 103.4C426.7 104.5 426 106.3 426 107.5C426 108.7 425.3 110.5 424.5 111.6C423.7 112.6 423 114.4 423 115.6C423 116.7 422.3 118.5 421.5 119.6C420.7 120.6 420 122.4 420 123.5C420 124.6 419.3 126.4 418.5 127.4C417.7 128.5 417 130.4 417 131.6C417 132.8 416.3 134.3 415.5 135C414.7 135.7 414 137.2 414 138.4C414 139.6 413.3 141.5 412.5 142.6C411 144.6 410.5 148.2 411.7 149.3C412.1 149.7 428.1 149.9 447.4 149.8L482.5 149.5L482.8 145.9zM248.4 124.4C249.5 123.6 251.5 123 252.8 123C261.4 123 281.9 102.1 282 93.2C282 91.7 282.7 89.6 283.5 88.6C285.7 85.8 285.7 58.2 283.5 55.4C282.7 54.4 282 52.4 282 51C281.9 41.1 262 21 252.3 21C251.2 21 248.3 20.3 246 19.5C240.6 17.6 213.1 17.3 211.2 19.2C210.3 20.1 210 33.4 210 72.7C210 125.1 210 125.1 212.1 125.9C215.9 127.2 246.1 126.1 248.4 124.4z"/></g><g transform="translate(300 485) scale(0.57333)"><path fill="#fff" fill-rule="evenodd" d="M127.2 88.5C126.4 87.5 124 87 120.5 87C114 87 114.3 87.3 113.9 78C113.4 67.9 115.8 67.9 120 78.1C120.6 79.6 122.8 81.5 124.8 82.5C126.8 83.5 129.7 84.9 131.2 85.7C134.6 87.4 136.5 87.4 138 85.5C138.7 84.7 140.1 84 141.1 84C144 84 146.3 77.6 144.9 73.3C143.8 70 139.4 66 136.7 66C135.8 66 133.9 65.4 132.3 64.6C130.8 63.8 127.3 62.2 124.7 61C116.3 57.2 110.8 45.9 115.4 42C116.2 41.4 117 39.9 117.2 38.8C117.5 36.8 120.8 34.7 128.8 31.4C132.8 29.8 133.3 29.8 136.6 31.3C140.6 33.3 145.1 33.5 146.7 31.9C148.9 29.7 150 32.2 150 39.5C150 47.9 148.8 49.6 146.5 44.7C142.5 36.3 133.1 32.7 126.2 36.9C122.7 39.2 121.7 45 124.2 48.2C126.2 50.6 131.6 54 133.5 54C134.4 54 136.4 54.6 137.8 55.4C139.3 56.2 142.5 57.7 144.9 58.8C154.1 63.1 156.4 76.3 149.2 83.3C147.1 85.3 144.4 87 143.2 87C141.9 87 140.7 87.7 140.4 88.5C139.6 90.6 129 90.5 127.2 88.5zM178.6 88.5C178.3 87.7 177.5 87 176.7 87C176 87 174.4 86 173.2 84.7C171.1 82.5 171 81.4 170.8 61C170.5 37.1 171 38.8 162.6 36.3C157.9 35 159 33.5 165 33L170.5 32.5L171 24C171.5 15.5 171.5 15.5 175.5 15.5C179.5 15.5 179.5 15.5 180 24L180.5 32.5L187.5 33C196.6 33.7 197.5 36.2 188.9 37C179.8 37.8 180 37.4 180 59C180 77.9 180 77.9 183.7 80.9C186.6 83.3 188.4 84 191.8 84C197.2 84 197.1 86.2 191.6 87.1C189.6 87.4 187.4 88.2 186.7 88.9C185.1 90.5 179.3 90.3 178.6 88.5zM254 88.5C253.3 87.7 252.2 87 251.6 87C250.9 87 249.4 86 248.2 84.7C246.1 82.5 246 81.4 245.8 60.5L245.5 38.5L241 37.4C238.3 36.8 236.5 35.8 236.5 34.9C236.5 34 238 33.3 241 33C245.5 32.5 245.5 32.5 246 24C246.5 15.5 246.5 15.5 250.5 15.5C254.5 15.5 254.5 15.5 254.8 23C255.2 32.5 255.7 33 264.1 33C270.8 33 273.7 34.3 270.9 36.1C270.1 36.6 267.2 37 264.5 37C255.1 37 255 37.3 255 57.9C255 75.6 255 75.6 258.5 79.8C261.7 83.4 262.6 83.9 267 84.2C273.1 84.6 273.6 86.3 267.8 87.1C265.5 87.4 263.4 88.2 263.2 88.8C262.7 90.5 255.5 90.3 254 88.5zM292.4 86.2C285.1 79.6 285 79.3 285 58.5L285 40L281 37.4C275.8 33.9 276.7 33 285.4 33C295.3 33 295 32.3 295 53.3C295 78.7 296.9 84 306.1 84C309 84 311.2 83.4 312 82.5C312.7 81.7 313.9 81 314.6 81C318.3 81 320 73.7 320 58.3C320 41.5 318.8 37.8 313 36.3C307 34.7 309.9 33.5 319.8 33.5L329.5 33.5L329.8 56.4C330.1 81.2 330.2 82 335.8 84.1C339.9 85.7 337.1 87 329.7 87C323.4 87 322.3 86.7 319.9 84.4C317.2 81.8 317.2 81.8 313.7 84.4C311.9 85.8 309.8 87 309.3 87C308.7 87 307.7 87.7 307 88.5C304.4 91.6 297 90.4 292.4 86.2zM358.2 86.4L354 82.8L354 61.5C354 37.9 354.3 38.8 347 36.7C341.4 35.1 341.5 33.6 347.2 33.2C353.2 32.8 353.8 31.9 354.2 23C354.5 15.5 354.5 15.5 358.5 15.5C362.5 15.5 362.5 15.5 363 24L363.5 32.5L370.5 33C379.9 33.7 380.5 36.2 371.5 37C362.5 37.8 363 36.6 363 58.6C363 82 363.6 83.1 375.5 84.2C379.7 84.6 379.1 86.4 374.4 87.1C372.3 87.5 370.4 88.3 370.2 88.9C369.4 91.4 362.6 90 358.2 86.4zM407.2 88.5C406.5 87.7 405.1 87 404.1 87C403.1 87 401.7 86.3 401 85.5C400.3 84.7 399.2 84 398.6 84C397.3 84 393 78.7 393 77.2C393 76.7 392.4 75.7 391.6 75.1C390.4 74.1 389.1 66.6 389 60C388.9 54.9 390.6 48.1 392.6 44.9C395.4 40.3 402.9 33 404.7 33C405.4 33 407.5 32.2 409.5 31.3C412.8 29.7 413.2 29.7 416.5 31.3C418.5 32.2 421.1 33 422.4 33C424 33 426.5 34.8 429.9 38.6C434.8 44 435 44.4 435 50C435 53.2 434.6 56.1 434.2 56.4C433.7 56.7 426.2 57.1 417.6 57.4C407.5 57.7 401.4 58.3 400.4 59C398.5 60.7 398.6 67.4 400.6 71.3C401.5 73.1 402.6 75.2 403 76C405 80.3 412 84 418.3 84C424.3 84 424.6 83.9 429.2 79.3C432.8 75.7 434.3 74.9 435.1 75.7C437.5 78.1 429.7 86 423.8 87.4C422.2 87.7 421 88.5 421 89C421 90.6 408.7 90.1 407.2 88.5zM532.6 88.5C532.3 87.6 530.8 87 529.2 87C525.8 87 519.7 81.6 515.5 75.1C512.4 70.1 511.7 50.4 514.5 48C515.3 47.3 516 46 516 45.1C516 41.8 526.8 33 530.8 33C532.1 33 534.5 32.3 536.2 31.4C539.1 29.9 539.6 29.9 542.1 31.4C543.6 32.3 546 33 547.5 33C553.1 33 564 44.1 564 49.9C564 51.5 564.7 54.4 565.5 56.4C566.9 59.6 566.9 60.4 565.5 63.6C564.7 65.6 564 68.5 564 70C564 76.3 554.3 87 548.6 87C547.3 87 545.7 87.7 545 88.5C544.2 89.5 541.9 90 538.5 90C534.7 90 533 89.6 532.6 88.5zM811 88.5C810.3 87.7 808.7 87 807.4 87C805.1 87 796.7 79.5 793.4 74.5C791 70.8 791.1 51.3 793.6 46.8C797.3 40.1 805.1 33 808.8 33C810.7 33 813.5 32.2 815.1 31.3C817.8 29.7 818.2 29.7 820.9 31.3C822.5 32.2 825.1 33 826.7 33C828.9 33 830.8 34.3 834.6 38.3C842.9 46.8 843 47 843 59.7C843 71 843 71 839.3 76.8C835.3 83 830.3 87 826.4 87C825 87 823.7 87.7 823.4 88.5C823 89.6 821.3 90 817.5 90C814.1 90 811.8 89.5 811 88.5zM867.3 88.9C866.7 88.3 865.2 87.3 864 86.6C859.9 84.5 858.9 79.1 858.9 58.5C858.9 38.3 858.6 37 854 37C851.2 37 848.5 34.9 849.7 33.7C850 33.3 851.8 33 853.5 33C858 33 859.4 30.8 859.5 24C859.5 17.6 861 15 864.6 15C868 15 870.2 18.8 869.5 23.6C868.3 31 870 33 877.3 33C884.2 33 885.6 33.6 883.9 35.7C883.2 36.5 880.7 37 877.6 37C869.9 37 870 36.7 870 59.6C870 82.4 870.2 82.9 879.8 84C884.8 84.6 885.4 86.2 881 87.1C879.2 87.5 877.3 88.3 876.7 88.9C875.3 90.3 868.7 90.3 867.3 88.9zM914.6 88.5C914.3 87.7 913 87 911.8 87C906.3 86.9 897.1 76.7 897 70.6C896.9 69.4 896.3 67.4 895.5 66C894.7 64.6 894.1 61.9 894.1 60C894.1 58.1 894.7 55.4 895.5 54C896.3 52.6 896.9 50.5 897 49.3C897.1 43.8 907.9 33 913.5 33C914.8 33 917.2 32.2 918.9 31.3C921.9 29.6 922.1 29.6 925.1 31.2C926.8 32.2 929.2 33 930.4 33C935 33 941.3 38.7 945.4 46.4C948.5 52.3 949.2 67 946.5 70.6C945.7 71.6 945 73.3 945 74.2C945 77.3 935.1 87 932 87C930.5 87 928.7 87.7 928 88.5C927.2 89.5 924.9 90 921 90C916.8 90 915.1 89.6 914.6 88.5zM1081.2 88.5C1080.5 87.7 1078.7 87 1077.1 87C1073.6 87 1066.4 81.9 1065.5 78.8C1065.1 77.5 1064.1 75.7 1063.3 74.8C1061 72.2 1061 50.7 1063.3 48.2C1064.2 47.2 1065 45.7 1065 44.9C1065 42.7 1075.3 33 1077.6 33C1078.7 33 1080.5 32.3 1081.6 31.5C1084.1 29.6 1089.1 29.6 1091.6 31.5C1092.6 32.3 1094.4 33 1095.6 33C1100 33 1104.1 39.1 1103.8 45.1C1103.5 50.5 1103.5 50.5 1100 50.8C1094.8 51.2 1091.6 47.6 1093.2 43.3C1095.3 37.6 1091.5 34.4 1083.9 35.6C1079.6 36.3 1076.7 39.3 1072.9 46.7C1070.8 50.8 1070.1 67.3 1072 68.5C1072.5 68.8 1073.4 70.8 1073.9 72.8C1075.3 77.9 1083.3 84 1088.8 84C1093.1 84 1099.1 81.3 1103.1 77.4C1105.1 75.5 1106 75.2 1106.6 76.1C1107.6 77.7 1097.6 87 1094.9 87C1093.8 87 1092.7 87.7 1092.4 88.5C1091.6 90.5 1083 90.5 1081.2 88.5zM1129.6 88.5C1129.2 87.4 1127.5 87 1123.2 87C1116.8 87 1115.7 86.3 1114.6 81.5C1112.9 74.4 1112.8 72.9 1114 71.5C1115.6 69.5 1119 71.3 1119 74.2C1119 76.5 1126.2 84 1128.5 84C1129.2 84 1131.2 84.8 1132.9 85.8C1135.4 87.2 1136.3 87.3 1137.7 86.3C1138.7 85.6 1141 84.4 1142.8 83.6C1145.9 82.2 1146 81.9 1146 76.1C1146 70.4 1145.9 70.1 1142.4 68.1C1140.5 66.9 1138.1 66 1137.1 66C1136.1 66 1134.7 65.3 1134 64.5C1133.3 63.7 1131.8 63 1130.6 63C1128 63 1124.9 61 1119.8 56.1C1116.4 53 1116 52 1116 47.8C1116 41.1 1121.2 33 1125.4 33C1126.6 33 1128.4 32.3 1129.4 31.5C1131.9 29.6 1135.3 29.6 1139.1 31.5C1140.9 32.5 1143.9 33 1146.8 32.8C1151.5 32.5 1151.5 32.5 1151.8 38.9C1152.2 47.7 1151.6 48.9 1148.5 46C1147.1 44.7 1146 42.9 1146 42C1146 36.6 1130.7 33.3 1125.9 37.6C1122.5 40.7 1121.6 42.9 1123.3 44.8C1124.1 45.7 1125 47.2 1125.3 48.1C1125.6 49 1128 50.8 1130.7 52C1133.3 53.2 1136.7 54.9 1138.2 55.6C1139.6 56.4 1141.7 57 1142.8 57C1143.9 57 1147.1 59.2 1149.9 61.9C1154.9 66.7 1155 66.8 1155 72.9C1155 76.4 1154.6 79 1154 79C1153.4 79 1152.5 80.1 1152 81.5C1151.5 82.9 1150.4 84 1149.6 84C1148.9 84 1147.7 84.7 1147 85.5C1146.3 86.3 1144.9 87 1143.9 87C1143 87 1141.5 87.7 1140.6 88.5C1139.8 89.4 1137.3 90 1134.7 90C1131.6 90 1130 89.5 1129.6 88.5zM1.2 86.1C-0.5 85.1 1.8 84 5.9 84C11.9 84 12 83.5 12 48.3C12 16.3 12 16.3 9.7 14.2C8.4 13 6.3 12 4.9 12C1 12 -0.5 10.5 2.2 9.4C4 8.6 27.2 8.3 33.8 8.9C36.8 9.2 34.9 12 31.7 12C24.1 12 24 12.6 24 48.1C24 83.7 23.9 83.4 32 84.2C33.9 84.4 35.4 85 35.3 85.5C34.9 86.8 3 87.3 1.2 86.1zM46.5 86C46.2 85.4 46.7 84.7 47.7 84.3C53.7 82.2 54 81.2 54 60.9L54 42.2L49.4 38.1C43.9 33.3 44.5 32.8 55.1 33.2C61.6 33.5 62.5 33.7 62.8 35.5C63.5 39 64.6 39.2 69.1 36.2C79.5 29.3 96 31.2 96 39.2C96 40.3 96.6 42.1 97.2 43.3C98.1 44.8 98.7 52 99 64.5C99.5 83.3 99.5 83.4 101.8 84C107.5 85.3 103.3 86.5 93 86.5C86.4 86.5 82 86.1 82 85.5C81.9 85 82.8 84.4 84 84.2C87.9 83.6 89 79.2 89 64.7C89 41.1 84.3 33.6 72.4 38.6C63.9 42.2 63 44.3 63 63.1C63 80.9 63.4 82.2 69.3 84.3C70.3 84.7 70.8 85.4 70.5 86C69.7 87.3 47.3 87.3 46.5 86zM207.5 86C207.2 85.5 207.6 84.8 208.4 84.5C209.3 84.2 210.7 83.8 211.5 83.5C212.8 83.1 213 79.8 213 61.6C213 38.2 213 38.3 205.6 35.6C201.5 34.2 205.8 32.9 214.1 33.2L222.5 33.5L223 56C223.5 79.6 224.2 83.6 228 84.2C229.1 84.4 230.2 85 230.3 85.5C230.6 86.9 208.4 87.4 207.5 86zM474.5 86C474.2 85.5 474.6 84.8 475.4 84.5C476.3 84.2 477.7 83.8 478.5 83.5C479.7 83.2 480 79.4 480.2 61.8C480.5 38.5 480.2 37 474.6 37C471.7 37 469 34.3 471.1 33.6C471.9 33.3 474 32.9 475.9 32.8C479.5 32.5 483 26.1 483 19.8C483 13.8 490.6 3.9 496.2 2.6C497.8 2.3 499 1.5 499 1C499 0.4 501 0 503.4 0C509.4 0 513.3 3.4 512.8 8.2C512.4 13 506.8 13.5 502.5 9C496.7 3 492.6 6.4 491.5 18.5C490.2 32.1 490.6 33 498.5 33C501.3 33 504 33.3 504.3 33.7C505.8 35.1 502.5 37 498.6 37C490.8 37 490.7 37.1 490.9 58.7C491.1 82.1 491.4 83.3 496.4 84C498.4 84.3 500.1 85 500 85.5C500 86.9 475.4 87.4 474.5 86zM544.5 84.5C549 81.5 552 77.8 552 75.2C552 74.1 552.7 72.7 553.5 72C555.6 70.2 555.6 51.4 553.5 48.6C552.7 47.5 552 45.9 552 45C552 44.1 550.4 41.7 548.5 39.7C540.9 31.9 527.3 35.9 524.9 46.6C524.5 48.8 523.6 52.6 522.9 55.2C521.9 59 521.9 61 522.9 64.8C523.6 67.4 524.4 71.1 524.7 73C525.3 76.8 528.6 81 534 84.6C538.5 87.5 540.1 87.5 544.5 84.5zM576 85.5C576 84.7 576.8 84 577.8 84C581.7 84 582 82.3 582 61C582 38.5 582 38.4 574.6 35.6C570.6 34.2 574.8 32.9 582.6 33.2C590 33.5 590.4 33.6 591 36C591.9 39.7 594.7 39.7 598.5 36C601.5 33.1 602.6 32.7 607.4 32.6C614.3 32.5 615.2 33.4 614.8 39.6C614.5 44.5 614.5 44.5 610.8 44.8C607.7 45.1 607 44.7 605.8 42.3C603.7 37.8 599 37.9 594.6 42.7C591.1 46.5 591.1 46.5 591 63.1C591 81.4 591.7 83.4 598.3 84.2C599.8 84.4 601 85 601 85.5C601 87.3 576 87.4 576 85.5zM651.7 86.4C650.4 85.1 652.2 84 655.5 84C662.7 84 663 82.4 663 48C663 13.6 662.7 12 655.5 12C651.9 12 650.2 10.6 652.2 9.3C654.7 7.7 698.1 9.1 701 10.8C709.5 16 711 18.7 711 28.5C711 37.6 711 37.6 705.7 42.8C702.8 45.7 699.7 48 698.8 48C698 48 696.7 48.6 696.1 49.4C695.4 50.2 691.6 51 686 51.4C673.3 52.4 673 52.8 672.9 66C672.8 79.8 674.3 83.7 679.7 84.2C681.8 84.4 683.5 85 683.5 85.5C683.5 86.6 652.8 87.5 651.7 86.4zM723.5 86C723.2 85.5 723.6 84.8 724.4 84.5C725.3 84.2 726.7 83.8 727.5 83.5C729.2 83 729.1 83.4 729.1 36.3C729 7.1 729 7.3 724.6 6.2C717.1 4.2 722.7 0 732.8 0C740.3 -0 740.9 1.5 741 21.2C741 36 741.2 38 742.7 38.9C744.4 39.8 744.4 39.9 742.7 41.8C741.1 43.5 741 45.8 741.2 63.6C741.5 83.4 741.5 83.4 743.8 84C745.1 84.3 746.2 85 746.3 85.5C746.6 86.9 724.4 87.4 723.5 86zM759 85.6C759 84.7 760.1 84 761.8 83.8C764.5 83.5 764.5 83.5 764.8 63.4L765 43.3L761 39.6C756.7 35.8 753.7 35.2 750.6 37.5C748.5 39.1 744 39.5 744 38.2C744 36.7 748.6 33 750.5 33C751.5 33 753.8 32.5 755.6 31.8C760.1 30.2 766.2 32.3 770.6 37C774 40.5 774 40.5 774 59.6C774 80.2 774.8 83.4 780.1 84.2C781.2 84.4 782.1 85 782 85.5C782 87.3 759 87.4 759 85.6zM825.9 81.9C828.9 79 831 76 831 74.7C831.1 73.5 831.7 71.4 832.5 70C834.5 66.6 834.4 53.2 832.5 50.6C831.7 49.5 831 47.4 831 46C831 44.3 829.7 42.1 827.1 39.6C821.3 33.9 813.7 33.9 807.9 39.6C805.8 41.7 804 44.2 804 45.1C804 46 803.3 47.3 802.5 48C800.4 49.8 800.4 68.8 802.5 71.6C803.3 72.6 804 74.2 804 75C804.1 78.9 813.8 86.8 818.6 86.9C819.9 87 822.8 84.9 825.9 81.9zM924.5 85.9C924.9 85.4 926.2 84.5 927.5 84C937.8 80.1 941 51 932.3 40.3C929.4 36.6 929.1 36.5 922.1 36.2C914.1 35.9 912.3 37 908.1 45.1C905.5 49.9 905 69.3 907.3 73.8C908.1 75.3 909.3 77.8 910.1 79.4C910.9 81 912.2 82.6 913 83C913.8 83.4 915.9 84.4 917.5 85.3C921 87.2 923.6 87.4 924.5 85.9zM957.7 86.4C956.7 85.3 958 84 960 84C964 84 965 79.3 965 61.5C965 43.7 964.6 41.7 959.6 37.1C956 33.7 957.1 33 966.1 33C972.3 33 974.2 33.3 974.5 34.5C974.8 35.3 975.2 36.7 975.5 37.6C975.9 38.9 976.5 38.7 979.4 36.5C983.9 33.1 993.7 30.5 996.8 31.9C998.1 32.5 999.9 33 1000.9 33C1003.6 33 1007.7 38.1 1008.5 42.5C1008.8 44.7 1009.4 54.5 1009.8 64.2C1010.5 81.8 1010.9 83.5 1014.3 84.2C1020 85.2 1015.3 86.5 1004.8 86.8C995 87 993 86.8 993 85.6C993 84.7 994.1 84 995.8 83.8C998.5 83.5 998.5 83.5 998.8 63.3L999 43.2L995.3 40.1C991 36.6 988.9 36.3 983.4 38.6C975 42 975 42 975 62.6C975 81.6 975.5 84 979.6 84C980.4 84 981 84.7 981 85.5C981 87.1 959.2 87.9 957.7 86.4zM1029 85.5C1029 84.7 1029.6 84 1030.3 84C1034.4 84 1035 81.1 1035 60.9C1035 39.6 1035.1 40.4 1029.7 37.1C1024.5 33.9 1026.1 32.9 1035.6 33.2L1043.5 33.5L1043.8 55.9C1044.1 80 1044.8 83.4 1050.1 84.2C1051.2 84.4 1052.1 85 1052 85.5C1052 87.3 1029 87.4 1029 85.5zM425.8 50.7C426.7 43 420 35.5 412.4 35.6C405 35.8 399 42.1 399 49.9C399 54 399.3 54.1 412.9 53.8C425.5 53.5 425.5 53.5 425.8 50.7zM693.9 42.4C699 36.8 699 36.8 699 29.5C699 22.1 699 22.1 694 17C688.9 12 688.9 12 682.1 12C672.6 12 672.7 11.9 672.9 30.2C673.1 48.2 673 48 682 48C688.8 48 688.8 48 693.9 42.4zM214.4 14.4C211.9 12 211.6 7.1 213.6 3.8C214.9 1.7 220.9 3.1 222.9 5.9C225.7 9.8 225.6 10.3 221.5 13.9C217.2 17.6 217.5 17.6 214.4 14.4zM1035.2 13.9C1031.4 10 1031.4 9.7 1034.1 5.9C1037.4 1.2 1043.1 2 1044.4 7.3C1046.3 14.9 1040.3 19.1 1035.2 13.9z"/></g><g transform="translate(300 570) scale(0.57333)"><path fill="#fff" fill-rule="evenodd" d="M1118.6 112.5C1118.3 111.7 1116.8 111 1115.3 111C1108.5 110.9 1103.3 101.1 1106.7 95C1108.5 91.8 1112.3 88.7 1116.2 87.4C1118.8 86.5 1118.4 85.2 1114.6 81C1110.6 76.5 1111.1 72.4 1116.5 67.6L1119.5 65L1115.3 61.2C1110.7 57.2 1107.8 50.8 1109.1 47.5C1109.5 46.4 1109.9 44.3 1109.9 42.8C1110 39.8 1116.7 33.6 1121 32.7C1122.4 32.4 1125 31.6 1126.8 30.9C1129.7 29.7 1130.5 29.7 1133.1 31.3C1135.5 32.6 1138.5 33 1147.1 33C1157.3 33 1158 33.1 1158 35C1158 36.7 1157.3 37 1153.7 37C1147.7 37 1144.9 39.1 1147.3 41.7C1148.5 43.1 1149 45.4 1149 49.7C1149 55.8 1149 55.8 1143.4 60.9C1137.8 66 1137.8 66 1130.6 66C1120.3 66 1115.9 70.7 1121.3 75.8C1123.4 77.8 1124.7 78 1133.7 78C1150.8 78 1158 82.8 1158 94.4C1158 101.1 1158 101.1 1152.9 106C1149.8 109 1146.8 111 1145.5 111C1144.3 111 1142.7 111.7 1142 112.5C1141 113.7 1138.3 114 1130 114C1121.3 114 1119.1 113.7 1118.6 112.5zM1140.6 108.3C1149.5 106.9 1153.2 95 1146.5 89.5C1142.1 85.9 1124.6 85.8 1119.9 89.2C1116.4 91.8 1113.7 97.4 1114.6 100.2C1115.7 103.8 1120.1 108 1122.8 108.1C1124.3 108.1 1126.4 108.6 1127.5 109.1C1129.3 109.9 1132 109.7 1140.6 108.3zM6.5 87.4C4.3 86.1 1.9 84.8 1.2 84.4C0.4 84 -0 81.2 -0 76.1C-0 68.3 2.7 63 6.7 63C7.3 63 8.3 62.3 9 61.5C9.7 60.7 11.2 60 12.4 60C13.5 60 15.4 59.3 16.4 58.5C17.5 57.7 19.5 57 20.9 57C23.7 56.9 30.6 52.6 32.4 49.8C34.2 46.9 29.4 38.2 24.7 35.9C21 34 20.7 34 16.5 35.6C12.2 37.2 12.1 37.3 11.8 42.4C11.5 47.5 11.5 47.5 7.5 47.5C3.7 47.5 3.5 47.3 3.2 44.1C2.8 39.7 8.8 33 13.2 33C14.8 33 17.2 32.2 18.6 31.3C21 29.8 21.5 29.8 25.8 31.3C28.4 32.3 31.4 33 32.6 33C35.1 33 37.4 35.3 40 40.6C41.8 44 42 46.5 42 62.7C42 82.3 42.5 84 48.2 84C51.2 84 51.2 85.9 48.1 87.5C43.2 90 36.5 88.3 33.7 83.9C32.2 81.4 31.3 81.5 27.4 84.5C25.6 85.9 23.1 87 21.8 87C20.5 87.1 18.4 87.7 17 88.5C13.6 90.5 11.2 90.2 6.5 87.4zM144.6 88.5C143.5 87.7 141.8 87 140.9 87C138.5 87 130.9 79.3 128.2 74.2C126.3 70.6 126 68.4 126.1 59.7C126.1 49.5 126.1 49.5 130.3 43.5C134.4 37.7 135.3 37 147.8 31.2C150.6 29.8 151.6 29.8 154.3 30.9C164.7 35.2 166.4 33.5 165.8 20C165.2 8.8 164 6.3 158.7 5.8C157 5.6 155.5 5 155.3 4.3C153.9 0.3 173.9 -2 176 1.9C176.6 3.2 177 17.6 177 41.8C177 83.4 176.8 82 183.3 84.3C187.2 85.7 183.5 87 175.9 87C170.2 87 167.2 86.5 165.5 85.4C163.4 84 162.7 84 161.4 85.1C156.9 88.8 147.4 90.7 144.6 88.5zM319.4 88.5C318.4 87.7 316.6 87 315.5 87C313.2 87 303 77.2 303 75C303 74.2 302.3 72.6 301.5 71.6C300.4 70.2 300 67.1 300 61.1C300.1 47.7 306.3 37.7 317 33.4C317.8 33.1 320.2 32.1 322.2 31.3C325.6 29.9 326.3 29.9 330 31.4C339.2 35 341 33.5 341 22.1C340.9 11.4 339 6.7 334.5 6.2C330.2 5.7 329.3 4.4 331.5 2C333.9 -0.7 349.4 -1 350.4 1.6C350.7 2.5 351 20.4 351 41.4C351 79.7 351 79.7 353.2 81.7C354.5 82.9 356.4 84 357.4 84.2C362.1 85 358.3 86.5 351 86.8C344.9 87 342.5 86.7 340.5 85.4C338.1 83.9 337.8 83.9 336.1 85.4C335.2 86.3 333.5 87 332.4 87C331.4 87.1 329.4 87.7 328 88.5C324.8 90.4 321.9 90.4 319.4 88.5zM434.6 87.6C430.7 85.1 426.1 78.8 426 75.8C425.9 70.3 435.4 60 440.5 60C441.8 60 443.3 59.3 444 58.5C444.7 57.7 446.4 57 447.7 57C449.1 57 451.4 56.4 452.8 55.6C454.3 54.8 456.3 53.9 457.2 53.6C460.1 52.7 459.7 41 456.8 38.3C454 35.8 447.4 34.5 443.8 35.9C441.4 36.8 441.1 37.5 440.8 42.2C440.5 47.5 440.5 47.5 435.6 47.5C432.1 47.5 430.4 47 429.6 45.8C427.3 42 435.4 33 441.1 33C442.2 33 444.2 32.3 445.5 31.4C449.6 28.7 460.7 32.1 465.2 37.3C467.9 40.5 467.9 40.5 468 59.3C468 77 468.1 78.2 470.2 81C471.4 82.7 473.2 84 474.1 84C476.8 84 477.4 86 475.4 87.5C472.3 89.8 462 87.9 462 85C462 82.2 457.8 81.9 454.5 84.4C452.6 85.8 450.3 87 449.3 87C448.3 87.1 446.4 87.7 445 88.5C441.5 90.5 439.1 90.3 434.6 87.6zM576 88.5C574.6 87.7 572.5 87.1 571.3 87C566.6 87 558.8 77.7 557.7 71C557.4 69.1 556.6 65.6 555.9 63.3C554.8 59.6 554.8 58.6 556.3 55.5C557.2 53.5 558 50.6 558 48.9C558 45.5 569 33.7 573.1 32.7C574.4 32.4 576.9 31.6 578.7 30.9C581.5 29.8 582.4 29.8 585.5 31.3C587.5 32.2 589.9 33 590.9 33C596.8 33 602.4 45.6 598.2 49.3C593.2 53.8 588 50.3 588 42.5C588 36 586.2 34.4 579.5 35.4C575.1 36.1 572 38.7 568.7 44.7C566.4 48.9 566.2 70.1 568.4 72C569.2 72.6 570 74.1 570.2 75.3C570.8 79.3 578.5 84 584.4 84C589.2 84 590 83.6 594.6 79.5C599.4 75.1 601 74.3 602.4 75.7C603.5 76.8 592.8 87 590.5 87C589.4 87 587.6 87.7 586.6 88.5C584.1 90.4 579.3 90.4 576 88.5zM628.6 88.5C627.1 87.7 625 87 624.1 87C621.5 87 613.3 78 611.4 73C605.2 56.8 612.7 36.6 626.2 32.9C628.2 32.4 630.2 31.5 630.5 31C631.4 29.5 635.4 29.8 637.6 31.5C638.6 32.3 640.7 33 642.1 33C649.1 33.1 656.1 42.6 656.4 52.5C656.5 56.5 656.5 56.5 649.5 57.1C645.6 57.5 637.9 57.8 632.3 57.9C620.5 58 620 58.3 620.8 66.3C622.5 83.6 638.9 89.6 651.8 77.6C654.3 75.3 655.3 74.9 656.2 75.8C657.6 77.2 647.9 87 645.1 87C644.1 87 642.5 87.7 641.4 88.5C638.9 90.4 632.3 90.4 628.6 88.5zM684.6 88.5C683.5 87.7 681.8 87 680.9 87C678.5 87 670.9 79.3 668.2 74.2C666.4 70.6 666 68.3 666 60.2C666 50.4 666 50.4 670.2 44C672.6 40.4 675.6 37 676.8 36.4C678.1 35.7 679.7 34.7 680.3 34.1C680.9 33.5 682.3 33 683.3 33C684.3 33 686.5 32.2 688.1 31.3C690.6 29.8 691.4 29.7 694.3 30.9C704.7 35.2 706.4 33.6 705.8 20C705.2 8.8 703.9 6 698.9 6C695.1 6 694.2 4.1 697 1.8C700.3 -0.9 714.5 -0.8 716 1.9C716.6 3.2 717 17.6 717 41.8C717 79.7 717 79.7 719.3 81.8C720.6 83 722.4 84 723.3 84C724.2 84 725 84.7 725 85.5C725 87.7 708.9 87.6 705.5 85.4C703.4 84 702.7 84 701.4 85.1C696.9 88.8 687.4 90.7 684.6 88.5zM783 88.5C781.6 87.7 779.5 87.1 778.3 87C777.1 87 774.8 86.2 773.2 85.3C770.3 83.6 770.1 83.6 768.2 85.4C763.6 89.5 762.5 87.5 762.2 74.6C762.1 68 762.3 62.3 762.8 61.8C764.1 60.5 768 63.9 768 66.4C768 69.1 772.1 74.9 777.6 80.2C781.9 84.2 789.8 85.8 797 84.2C804.1 82.6 810.1 69.8 805.5 66C804.7 65.3 804 64 804 63.1C804 61.2 800 57 798.3 57C797.7 57 796.7 56.3 796 55.5C795.3 54.7 793.7 54 792.5 54C791.3 54 789.7 53.3 789 52.5C788.3 51.7 787.1 51 786.2 51C781.4 51 770.7 44.1 767.4 38.9C764.4 34.1 764 23 766.6 19C769.6 14.6 775.4 9 777 9C777.9 9 779.5 8.3 780.6 7.5C783.1 5.6 792.7 5.6 796.4 7.5C797.9 8.3 800 9 800.9 9C801.8 9 803.1 9.5 803.8 10.2C804.7 11.1 805.5 11.1 807.4 10C812.3 7.4 813 8.9 813 20.9C813 26.9 812.6 32.1 812.1 32.5C810.8 33.3 807 29 807 26.8C807 22.5 797.9 12 794.2 12C792.9 12 791 11.5 790 11C784.2 7.9 774 16.2 774 23.9C774 28.9 781.6 37.6 786.9 38.6C788.6 39 790.5 39.9 791.1 40.6C791.7 41.4 793 42 793.9 42C797.7 42 810.5 49.6 813.2 53.6C819.1 62.1 815.4 80.5 807 84C805.6 84.5 803.8 85.4 803 85.9C796 90 787.6 91.1 783 88.5zM845 88.5C843.6 87.7 841.8 87.1 841 87C836.7 86.9 829.7 78.3 827.9 71C827.5 69.1 826.5 65.6 825.9 63.3C824.8 59.6 824.8 58.6 826.3 55.5C827.2 53.5 828 50.7 828 49.1C828 47.5 828.7 45.7 829.5 45C830.3 44.3 831 43.2 831 42.4C831 40.6 835.5 36.5 839.9 34.4C850.6 29.2 849.6 29.4 853.5 31.3C855.5 32.2 858.3 33 859.8 33C862.8 33 870 39.4 870 42C870 42.8 870.7 44.4 871.5 45.4C873.2 47.7 873.5 55.6 872 56.5C871.4 56.9 863.6 57.4 854.8 57.6C843.5 57.9 838.4 58.4 837.8 59.3C836.4 61.4 836.9 70.7 838.4 72C839.2 72.6 840 74.1 840.2 75.3C840.4 76.5 842.4 78.9 844.8 80.7C852.3 86.4 860.5 85.3 868.7 77.7C871.4 75.2 872 74.9 872.5 76.3C875.2 83.2 853 93.1 845 88.5zM967.4 88.4C966.2 87.6 962.9 86.9 959.6 86.9C952.9 86.8 952.9 86.8 952.3 77.3C951.8 68.3 953.8 67.4 957.7 75C960.2 79.9 964.3 84 966.5 84C967.3 84 969.5 84.8 971.4 85.7C974.7 87.2 975.1 87.2 976.8 85.7C977.8 84.8 979.2 84 979.8 84C982.4 84 984 80.7 984 75.5C984 69.8 980.5 66 975.3 66C974.1 66 972.7 65.3 972 64.5C971.3 63.7 969.8 63 968.6 63C966 63 962.9 61 957.8 56.1C954.3 52.9 954 52.1 954 47.4C954 41 958.6 34 963.5 32.9C965.2 32.5 968 31.6 969.8 30.9C972.6 29.7 973.4 29.8 976.4 31.4C978.7 32.6 981.3 33.1 984.6 32.8C989.5 32.5 989.5 32.5 989.8 38.9C990.2 47.8 989.5 49.3 986.4 45.7C985.1 44.2 984 42.3 984 41.6C984 34.4 965.5 33.3 962.5 40.3C960.3 45.7 966.7 53.9 973.3 54C974.5 54 976.4 54.7 977.4 55.5C978.5 56.3 980.2 57 981.1 57C982.1 57 985.2 59.3 988 62C992.7 66.8 993 67.4 993 72.1C993 78.8 987.6 86.9 982.9 87C982.1 87 980.5 87.7 979.4 88.5C976.9 90.4 970.1 90.3 967.4 88.4zM59.5 86.1C59.2 85.5 60.5 84.4 62.5 83.6C66 82.1 66 82.1 66 61.2C66 38.3 66.1 38.5 59.6 36C54.7 34.2 58 32.9 66.6 33.2C74 33.5 74.4 33.6 75 36C75.8 39.6 79 39.6 82.5 36C84.1 34.4 86.4 33 87.6 33C88.9 33 90.9 32.6 92.2 32.1C97.3 30.2 108 34.9 108 39C108 40 108.7 41.3 109.5 42C110.7 43 111 46.6 111 62.1C111 81.6 111.5 84 115.6 84C116.4 84 117 84.7 117 85.5C117 86.8 115.3 87 105.2 86.8C94.7 86.5 90.1 85.2 95.7 84.2C96.7 84 98.5 82.9 99.8 81.7C103.1 78.6 103.2 51.3 99.9 44.1C96.9 37.7 91.8 35 87.2 37.4C85.5 38.3 83.6 39 83.1 39C82.5 39 80.5 40.7 78.5 42.8C75.1 46.5 75.1 46.5 75 63.1C75 80.9 75.6 83.1 81.3 84.2C82.3 84.3 83.1 85 83.1 85.5C83 86.8 60.4 87.4 59.5 86.1zM215.7 86.4C214.6 85.2 216 84 218.5 84C221.2 84 226.7 78 227.7 74C228 72.6 228.9 70.6 229.6 69.5C230.4 68.4 231 66.8 231 65.9C231 65 231.7 63.7 232.5 63C233.3 62.3 234 60.9 234 59.9C234 58.1 235.9 53 238.6 47.8C239.4 46.4 240 44.3 240 43.3C240 42.2 240.7 40.5 241.5 39.4C242.3 38.4 243 36.6 243 35.5C243 34.4 243.7 32.6 244.5 31.6C245.3 30.5 246 28.6 246 27.4C246 26.2 246.7 24.7 247.5 24C248.3 23.3 249 21.8 249 20.6C249 19.4 249.7 17.5 250.5 16.4C251.3 15.4 252 13.6 252 12.4C252 10.4 254.8 7 256.4 7C258 7 260.9 11.6 261 14.1C261 15.6 261.7 17.3 262.5 18C263.3 18.7 264 20.2 264 21.4C264 22.5 264.7 24.4 265.5 25.4C266.3 26.5 267 28.4 267 29.6C267 30.8 267.7 32.3 268.5 33C269.3 33.7 270 35.2 270 36.4C270 37.6 270.7 39.5 271.5 40.6C272.3 41.6 273 43.4 273 44.6C273 45.7 273.7 47.5 274.5 48.6C275.3 49.6 276 51.7 276 53.1C276 54.6 276.7 56.3 277.5 57C278.3 57.7 279 59.2 279 60.4C279 61.6 279.7 63.5 280.5 64.6C281.3 65.6 282 67.3 282 68.2C282.1 73.5 288.8 82.6 293.6 83.9C300 85.6 295.3 86.5 280.5 86.5C271 86.5 264.9 86.1 264.8 85.5C264.6 85 266.1 84.4 268 84.2C269.9 84 271.9 83.5 272.4 83C273.8 81.6 273.2 73.9 271.5 72C270.7 71.1 270 69.2 270 67.8C270 66.4 269.1 64.1 267.9 62.6C265.9 60 265.8 60 251.9 60C239.5 60 237.9 60.2 237.4 61.8C237.1 62.7 236.2 64.8 235.4 66.3C234.7 67.9 234 70.3 234 71.6C234 73 233.5 75 233 76.1C231.1 79.5 234.2 83.8 238.7 84.2C240.8 84.4 242.4 85 242.3 85.5C242 86.6 216.8 87.5 215.7 86.4zM388.7 85.2C387.8 84.2 387 82.5 387 81.6C387 80.6 386.4 78.6 385.7 77.2C384.9 75.7 383.6 73 382.7 71.2C381.8 69.3 381 67.2 381 66.5C381 65.8 380.3 63.8 379.5 62.1C378.7 60.4 377.3 57.6 376.5 55.9C375.7 54.2 375 52 375 51C375 50.1 374.3 48.7 373.5 48C372.7 47.3 372 46 372 45.1C372 44.2 370 41.4 367.5 39C365.1 36.6 363.3 34.3 363.6 33.8C364.3 32.7 385.7 32.8 386.5 33.9C386.8 34.5 385.8 35.5 384.3 36.2C381 37.8 379.9 42.9 382.4 45C383.3 45.7 384 47.2 384 48.4C384 49.6 384.7 51.5 385.5 52.6C386.3 53.6 387 55.5 387 56.6C387 57.8 387.7 59.3 388.5 60C389.3 60.7 390 62.1 390 63.1C390 65.9 394 72 395.4 71.4C396.1 71.1 397.3 69.7 398 68.2C398.7 66.7 399.9 64.3 400.6 62.8C401.4 61.4 402 59.4 402 58.3C402 57.3 402.7 55.6 403.5 54.6C404.3 53.5 405 51.9 405 50.9C405 50 405.7 48.7 406.5 48C409.6 45.4 408.3 38.2 404.2 36.1C400.3 34 402.8 33 411.6 33C420.7 33 421.8 33.8 417.4 37.2C414.8 39.3 411.1 46.7 403.4 64.8C402.5 66.8 401.2 69.8 400.4 71.3C399.6 72.9 399 74.7 399 75.5C399 76.2 398.4 77.3 397.6 78C396.8 78.6 396 80.8 395.8 82.8C395.4 87.2 391.6 88.5 388.7 85.2zM486.7 86.4C485.6 85.3 487 84 489.1 84C492.3 84 493.1 79.7 493.1 61.4C493 42.9 492.6 40.4 488.6 37.2C484.2 33.8 485.3 33 494.5 33C501.2 33 503.2 33.3 503.5 34.5C503.8 35.3 504.2 36.7 504.5 37.6C504.9 38.9 505.7 38.6 508.7 36.1C510.8 34.4 513.5 33 514.7 33C515.9 33 518 32.5 519.4 31.9C523.2 30.1 532 33.1 534.9 37.1C537 39.9 537.2 41.6 537.9 59.8C538.6 80.2 539.3 83.6 543 84.2C544.2 84.4 545.2 85 545.3 85.5C545.4 86.1 540.9 86.6 533.8 86.8C523.7 87 522 86.8 522 85.5C522 84.7 522.8 84 523.8 84C527.7 84 528 82.3 528 62.4C528 43.1 528 43.1 524.3 40.1C519.7 36.3 517.5 36.2 510.4 39.6C503.7 42.8 503.9 42.2 504.2 64.5C504.5 82.5 504.5 82.5 507.3 83.8C508.8 84.5 509.8 85.5 509.5 86.1C508.8 87.1 487.7 87.4 486.7 86.4zM883 85.5C883 84.7 883.9 84 884.9 84C889.8 84 891 79.5 891 61.5C891 43.2 890.3 40.4 884.4 36.5C880.4 33.9 882.7 32.9 891.6 33.2C898.6 33.5 899.5 33.7 899.8 35.5C900.4 38.5 901.6 39.3 903.1 37.8C905.9 35.2 910 33 912.3 33C913.5 33 915.1 32.5 915.8 31.8C917.2 30.4 927.2 32.6 930.1 34.9C933.6 37.8 935.2 46.4 935.9 65.5C936.5 83.2 936.5 83.4 938.8 84C944.5 85.3 940.3 86.5 930 86.5C919.7 86.5 915.5 85.3 921.2 84C924.5 83.2 925.2 78 924.7 59.6C924.3 43.6 924.3 43.6 920.6 40.3C915.4 35.5 909.7 36.3 902.8 42.8C900 45.4 900 45.4 900 63.2C900 81.1 900 81.1 903.5 83.1C908.8 86.2 907 87 894.4 87C884.9 87 883 86.7 883 85.5zM1005 85.5C1005 84.7 1005.6 84 1006.4 84C1010.5 84 1011 81.7 1011 60.9L1011 41L1006.5 37.8C1000.8 33.7 1001.8 32.8 1011.6 33.2L1019.5 33.5L1019.8 56.5C1020.1 81.2 1020.5 83.3 1026.2 84.2C1027.2 84.4 1028.1 85 1028 85.5C1028 87.3 1005 87.4 1005 85.5zM1038.5 86C1038.2 85.5 1038.6 84.8 1039.4 84.5C1040.3 84.2 1041.7 83.8 1042.5 83.5C1043.8 83.1 1044 79.8 1044 61.7C1044 38.5 1043.8 37.8 1037.6 35.6C1033.7 34.2 1037.8 32.9 1045.1 33.2C1052 33.5 1052.6 33.7 1053.8 36.2C1055.5 39.8 1057.5 39.7 1060.7 36C1062.1 34.2 1064.1 33 1065.5 33C1066.8 33 1069 32.5 1070.4 31.9C1074.2 30.1 1081.5 32.7 1085.6 37.3C1089 41 1089 41 1089 60.3C1089 81.2 1089.3 82.2 1095.3 84.3C1099.7 85.9 1095.2 87 1084.5 87C1072.1 87 1070 86.1 1075.7 83.3C1079.5 81.5 1079.5 81.5 1079.8 63.8C1080 47.5 1079.9 45.9 1078 42.7C1075.6 38.6 1071.2 36.5 1067.3 37.4C1065.7 37.8 1063.4 38.4 1062 38.6C1060.6 38.9 1058.3 40.9 1056.8 43C1054 46.8 1054 47 1054 62.5C1054 79.3 1055 83.5 1059 84.2C1060.2 84.4 1061.2 85 1061.3 85.5C1061.6 86.9 1039.4 87.4 1038.5 86zM25.4 82C30.4 79.5 32 76.1 32.7 67.5C33.3 59.1 30.8 55 27.2 58.3C26.2 59.3 24.8 60 24.1 60C21.2 60 14.7 64.4 12 68.2C8.1 73.6 8.2 76.4 12.4 80.6C16.4 84.6 19.7 85 25.4 82zM161.3 82C165.6 79.4 166 77.6 165.9 60.6C165.9 43.8 165.2 40.3 161.8 37.7C156.1 33.4 143.2 35.8 141.4 41.5C141.1 42.6 140.2 44.2 139.5 45C138.3 46.4 136.8 55.4 136.8 61C136.6 78.6 149.1 89.2 161.3 82zM335.4 82.1C340.4 78.8 340.9 76.8 341 60.9C341 40 338.9 35.8 328.3 35.7C315.2 35.6 311.1 43.7 311.8 67.8C312.2 79.6 326.3 88.1 335.4 82.1zM454.6 80.4C459 76.9 459 76.9 459 67.4C459 57.2 457.8 55 454.1 58.4C453.1 59.3 451.6 60 450.7 60C448.6 60 440.2 65.7 439 68C438.4 69 438 72.1 438 74.9C438 84.3 446.5 87.1 454.6 80.4zM700.9 82C705.7 79.4 706 78.1 705.9 60.6C705.9 43.8 705.2 40.3 701.8 37.7C696.1 33.4 683.2 35.8 681.4 41.5C681.1 42.6 680.2 44.2 679.5 45C678.3 46.4 676.8 55.4 676.8 61C676.6 78.5 688.2 88.5 700.9 82zM1136.4 58.8C1146.9 46.6 1132.8 27.5 1121.2 38.2C1117.3 42 1117.9 54.5 1122.4 59.3C1127.3 64.7 1131.6 64.5 1136.4 58.8zM263.8 53.2C264 51.9 263.4 49.8 262.6 48.5C261.7 47.2 261 45.3 261 44.3C261 43.3 260.3 41.6 259.5 40.6C258.7 39.5 258 37.6 258 36.4C258 35.2 257.4 33.7 256.6 33C255.8 32.4 255 30.9 254.8 29.7C254.1 24.8 249 26.9 249 32.1C249 33.6 248.3 35.3 247.5 36C246.7 36.7 246 38.2 246 39.4C246 40.5 245.3 42.4 244.5 43.4C243.7 44.5 243 46.4 243 47.6C243 48.8 242.3 50.3 241.5 51C240.1 52.2 240.1 52.5 241.7 54.2C244.5 57.3 263.4 56.5 263.8 53.2zM644.9 52.7C646.5 50.6 645.1 41.7 642.6 38.5C636.4 30.8 621 37.6 621 48C621 50.6 621.3 53 621.7 53.3C623 54.7 643.7 54.1 644.9 52.7zM862 52.5C862.8 51.6 863 49.9 862.6 48.3C862.2 46.7 861.6 44.3 861.3 42.8C859.6 34.4 847.3 32.7 840.8 40C837.1 44.1 835.5 51.1 837.7 53.3C839.1 54.8 860.7 54.1 862 52.5zM1011.1 13.8C1007.4 10 1007.3 9.1 1010.1 5.6C1013.8 0.9 1019.7 2.3 1020.7 8.3C1021.1 11.2 1020.8 12.3 1018.7 14.4C1015.4 17.7 1014.9 17.7 1011.1 13.8z"/></g></g></svg>